<svg width="20" height="20" viewBox="0 0 20 20" fill="none" xmlns="http://www.w3.org/2000/svg">
<path d="M13.5 10L6.5 10M6.5 10L9 12.5M6.5 10L9 7.5" stroke="black" stroke-width="1.5" stroke-linecap="round" stroke-linejoin="round"/>
<path d="M13.0496 18.6471L12.8783 17.9169L13.0496 18.6471ZM6.95043 18.6471L6.77915 19.3773L6.95043 18.6471ZM6.95043 1.35287L6.77916 0.622692L6.95043 1.35287ZM13.0496 1.35287L12.8783 2.08305L13.0496 1.35287ZM18.6471 6.95043L17.9169 7.12171L18.6471 6.95043ZM18.6471 13.0496L17.9169 12.8783L18.6471 13.0496ZM1.35287 13.0496L0.622694 13.2208L1.35287 13.0496ZM1.35288 6.95043L0.622695 6.77915L1.35288 6.95043ZM12.8783 17.9169C10.9851 18.361 9.01488 18.361 7.12171 17.9169L6.77915 19.3773C8.89763 19.8742 11.1024 19.8742 13.2209 19.3773L12.8783 17.9169ZM7.12171 2.08305C9.01488 1.63898 10.9851 1.63898 12.8783 2.08305L13.2208 0.622693C11.1024 0.125767 8.89763 0.125766 6.77916 0.622692L7.12171 2.08305ZM17.9169 7.12171C18.361 9.01487 18.361 10.9851 17.9169 12.8783L19.3773 13.2208C19.8742 11.1024 19.8742 8.89763 19.3773 6.77916L17.9169 7.12171ZM2.08306 12.8783C1.63898 10.9851 1.63898 9.01487 2.08306 7.12171L0.622695 6.77915C0.125767 8.89763 0.125766 11.1024 0.622694 13.2208L2.08306 12.8783ZM17.9169 12.8783C17.3305 15.3784 15.3784 17.3305 12.8783 17.9169L13.2209 19.3773C16.2756 18.6608 18.6608 16.2756 19.3773 13.2208L17.9169 12.8783ZM19.3773 6.77916C18.6608 3.72441 16.2756 1.33924 13.2208 0.622693L12.8783 2.08305C15.3784 2.6695 17.3305 4.6216 17.9169 7.12171L19.3773 6.77916ZM2.08306 7.12171C2.6695 4.6216 4.62161 2.6695 7.12171 2.08305L6.77916 0.622692C3.72441 1.33924 1.33924 3.72441 0.622695 6.77915L2.08306 7.12171ZM0.622694 13.2208C1.33924 16.2756 3.72441 18.6608 6.77915 19.3773L7.12171 17.9169C4.6216 17.3305 2.6695 15.3784 2.08306 12.8783L0.622694 13.2208Z" fill="black"/>
<path d="M13.0496 18.6471L13.2209 19.3773L13.2209 19.3773L13.0496 18.6471ZM7.12171 17.9169C6.71844 17.8223 6.31484 18.0726 6.22025 18.4758C6.12565 18.8791 6.37588 19.2827 6.77915 19.3773L7.12171 17.9169ZM6.95043 1.35287L6.77916 0.622693L6.95043 1.35287ZM13.0496 1.35287L12.8783 2.08306L12.8783 2.08306L13.0496 1.35287ZM18.6471 6.95043L17.9169 7.12171L18.6471 6.95043ZM18.6471 13.0496L19.3773 13.2208L18.6471 13.0496ZM0.622695 6.77915C0.528101 7.18242 0.778331 7.58602 1.1816 7.68061C1.58487 7.7752 1.98846 7.52497 2.08306 7.12171L0.622695 6.77915ZM12.8783 17.9169C10.9851 18.361 9.01488 18.361 7.12171 17.9169L6.77915 19.3773C8.89763 19.8742 11.1024 19.8742 13.2209 19.3773L12.8783 17.9169ZM7.12171 2.08305C9.01488 1.63898 10.9851 1.63898 12.8783 2.08306L13.2208 0.622693C11.1024 0.125767 8.89763 0.125766 6.77916 0.622693L7.12171 2.08305ZM17.9169 7.12171C18.361 9.01487 18.361 10.9851 17.9169 12.8783L19.3773 13.2208C19.8742 11.1024 19.8742 8.89763 19.3773 6.77915L17.9169 7.12171ZM17.9169 12.8783C17.3305 15.3784 15.3784 17.3305 12.8783 17.9169L13.2209 19.3773C16.2756 18.6608 18.6608 16.2756 19.3773 13.2208L17.9169 12.8783ZM19.3773 6.77915C18.6608 3.72441 16.2756 1.33924 13.2208 0.622693L12.8783 2.08306C15.3784 2.6695 17.3305 4.6216 17.9169 7.12171L19.3773 6.77915ZM2.08306 7.12171C2.6695 4.6216 4.6216 2.6695 7.12171 2.08305L6.77916 0.622693C3.72441 1.33924 1.33924 3.72441 0.622695 6.77915L2.08306 7.12171Z" fill="black"/>
</svg>
