<svg width="24" height="25" viewBox="0 0 24 25" fill="none" xmlns="http://www.w3.org/2000/svg">
<path d="M15.5 12.4826L8.5 12.4826M8.5 12.4826L11 15.083M8.5 12.4826L11 9.88212" stroke="black" stroke-width="1.5" stroke-linecap="round" stroke-linejoin="round"/>
<path d="M15.0496 21.4767L14.8718 20.7481L15.0496 21.4767ZM8.95043 21.4767L8.77265 22.2053L8.95043 21.4767ZM8.95043 3.48759L8.77266 2.75896L8.95043 3.48759ZM15.0496 3.48759L14.8718 4.21621L15.0496 3.48759ZM20.6471 9.31005L19.9155 9.47504L20.6471 9.31005ZM20.6471 15.6542L19.9155 15.4892L20.6471 15.6542ZM3.35288 15.6542L2.62125 15.8192L3.35288 15.6542ZM3.35288 9.31005L2.62125 9.14506L3.35288 9.31005ZM14.8718 20.7481C12.9828 21.209 11.0172 21.209 9.12821 20.7481L8.77265 22.2053C10.8953 22.7232 13.1047 22.7232 15.2274 22.2053L14.8718 20.7481ZM9.12821 4.21621C11.0172 3.75531 12.9828 3.75531 14.8718 4.21621L15.2273 2.75896C13.1047 2.24106 10.8953 2.24106 8.77266 2.75896L9.12821 4.21621ZM19.9155 9.47504C20.3615 11.4528 20.3615 13.5115 19.9155 15.4892L21.3788 15.8192C21.8737 13.6242 21.8738 11.3401 21.3788 9.14506L19.9155 9.47504ZM4.0845 15.4892C3.6385 13.5115 3.6385 11.4528 4.0845 9.47503L2.62125 9.14506C2.12625 11.3401 2.12625 13.6242 2.62125 15.8192L4.0845 15.4892ZM19.9155 15.4892C19.3238 18.1131 17.3602 20.1409 14.8718 20.7481L15.2274 22.2053C18.2938 21.4571 20.6675 18.9734 21.3788 15.8192L19.9155 15.4892ZM21.3788 9.14506C20.6675 5.99091 18.2938 3.50716 15.2273 2.75896L14.8718 4.21621C17.3602 4.82336 19.3238 6.85115 19.9155 9.47504L21.3788 9.14506ZM4.0845 9.47503C4.67621 6.85115 6.63982 4.82336 9.12821 4.21621L8.77266 2.75896C5.7062 3.50716 3.33253 5.99091 2.62125 9.14506L4.0845 9.47503ZM2.62125 15.8192C3.33253 18.9734 5.70619 21.4571 8.77265 22.2053L9.12821 20.7481C6.63982 20.1409 4.67621 18.1131 4.0845 15.4892L2.62125 15.8192Z" fill="black"/>
<!--<path d="M15.0496 21.4767L15.2274 22.2053L15.0496 21.4767ZM9.12821 20.7481C8.7258 20.6499 8.31999 20.8965 8.2218 21.2989C8.12362 21.7013 8.37024 22.1071 8.77265 22.2053L9.12821 20.7481ZM8.95043 3.48759L8.77265 2.75896L8.95043 3.48759ZM15.0496 3.48759L14.8718 4.21621L15.0496 3.48759ZM20.6471 9.31005L19.9155 9.47503L20.6471 9.31005ZM20.6471 15.6542L21.3788 15.8192L20.6471 15.6542ZM2.62125 9.14506C2.53013 9.54912 2.78382 9.95055 3.18789 10.0417C3.59195 10.1328 3.99338 9.8791 4.0845 9.47503L2.62125 9.14506ZM14.8718 20.7481C12.9828 21.209 11.0172 21.209 9.12821 20.7481L8.77265 22.2053C10.8953 22.7232 13.1047 22.7232 15.2274 22.2053L14.8718 20.7481ZM9.12821 4.21621C11.0172 3.75531 12.9828 3.75531 14.8718 4.21621L15.2273 2.75896C13.1047 2.24106 10.8953 2.24106 8.77265 2.75896L9.12821 4.21621ZM19.9155 9.47503C20.3615 11.4528 20.3615 13.5115 19.9155 15.4892L21.3788 15.8192C21.8737 13.6242 21.8738 11.3401 21.3788 9.14506L19.9155 9.47503ZM19.9155 15.4892C19.3238 18.1131 17.3602 20.1409 14.8718 20.7481L15.2274 22.2053C18.2938 21.4571 20.6675 18.9734 21.3788 15.8192L19.9155 15.4892ZM21.3788 9.14506C20.6675 5.99091 18.2938 3.50716 15.2273 2.75896L14.8718 4.21621C17.3602 4.82336 19.3238 6.85115 19.9155 9.47503L21.3788 9.14506ZM4.0845 9.47503C4.67621 6.85115 6.63982 4.82336 9.12821 4.21621L8.77265 2.75896C5.7062 3.50715 3.33253 5.99091 2.62125 9.14506L4.0845 9.47503Z" fill="black"/>-->
</svg>
