<svg width="38" height="38" viewBox="0 0 38 38" fill="none" xmlns="http://www.w3.org/2000/svg">
<path d="M32.2616 16.5757C32.1916 16.3414 32.0107 16.1566 31.778 16.0817C31.5451 16.0066 31.2905 16.0512 31.097 16.2005C29.1916 17.6707 27.3791 18.5058 25.3774 18.8136C26.4616 16.8346 27.2375 14.0014 26.7638 10.8299C26.3416 8.00464 24.7257 3.8556 19.4245 0.134738C19.227 -0.00390232 18.9745 -0.0378943 18.7473 0.0436717C18.5202 0.125164 18.3469 0.312046 18.2827 0.544646C17.1048 4.81057 14.2971 7.67244 11.582 10.44C8.131 13.9577 4.5625 17.5951 4.5625 23.9696C4.5625 31.7059 11.0383 37.9999 18.9981 37.9999C26.9578 37.9999 33.4336 31.706 33.4336 23.9696C33.4336 21.6671 33.0392 19.1793 32.2616 16.5757V16.5757ZM18.9981 36.5156C11.8568 36.5156 6.04687 30.8874 6.04687 23.9696C6.12777 13.5849 16.4142 11.0448 19.3976 1.95725C25.4557 6.38541 27.2817 13.9068 23.3395 19.2309C23.1627 19.4577 23.1328 19.7661 23.2627 20.0226C23.3927 20.2791 23.6579 20.4387 23.9464 20.4291C26.5625 20.3529 28.8146 19.6021 31.1241 18.0171C31.6719 20.1117 31.9492 22.1098 31.9492 23.9696C31.9493 30.8874 26.1394 36.5156 18.9981 36.5156Z" fill="#FF9900"/>
<path fill-rule="evenodd" clip-rule="evenodd" d="M24.1871 26.5007C22.9286 21.8037 17.9826 22.0782 15.6627 18.1299C12.3341 22.106 14.1369 25.6027 15.7268 26.8032C14.537 27.0851 13.4336 26.9807 12.1306 26.4369C12.0987 27.5609 12.2017 28.6554 12.4658 29.6414C14.7946 37.1041 25.9029 34.1215 24.1871 26.5007V26.5007Z" fill="#FFD9A0"/>
<path fill-rule="evenodd" clip-rule="evenodd" d="M19.3058 16.7783C16.8697 14.8955 18.3083 11.9597 20.5045 9.96875C21.8377 12.287 22.5337 15.2554 19.3058 16.7783Z" fill="#FFD9A0"/>
</svg>
