<svg width="24" height="25" viewBox="0 0 24 25" fill="none" xmlns="http://www.w3.org/2000/svg">
<path d="M16.25 4.33991V4.79563L16.7038 4.83777C17.9602 4.95443 18.839 5.38133 19.4281 6.00844C20.0187 6.63719 20.3662 7.51851 20.4608 8.63308L20.4603 8.63326L20.46 8.6333H3.54191C3.54119 8.63291 3.54023 8.63228 3.53926 8.63141C3.63416 7.51763 3.98159 6.63688 4.57192 6.00844C5.16099 5.38133 6.03978 4.95443 7.29621 4.83777L7.74999 4.79563V4.33991V2.77554C7.74999 2.63921 7.86745 2.52344 7.99999 2.52344C8.13252 2.52344 8.24999 2.63921 8.24999 2.77554V4.27974V4.77974H8.74999H15.25H15.75V4.27974V2.77554C15.75 2.63921 15.8674 2.52344 16 2.52344C16.1325 2.52344 16.25 2.63921 16.25 2.77554V4.33991Z" fill="black" stroke="black"/>
<path d="M9.52288 19.4241L9.54978 19.4025L9.57346 19.3774C9.83532 19.1002 10 18.7187 10 18.3221C10 17.9254 9.83532 17.5439 9.57346 17.2667L9.54978 17.2417L9.52288 17.2201L9.44788 17.1599L9.37288 17.0997L9.35594 17.0862L9.33789 17.0741C9.25575 17.0192 9.16731 16.9723 9.07259 16.9373C8.98407 16.896 8.88996 16.865 8.79087 16.8476C8.50135 16.791 8.20253 16.8183 7.92822 16.9376C7.73107 17.0156 7.58311 17.1233 7.455 17.2389L7.44022 17.2523L7.42654 17.2667C7.16468 17.5439 7 17.9254 7 18.3221C7 18.7187 7.16468 19.1002 7.42654 19.3774L7.44022 19.3919L7.455 19.4053C7.58427 19.5219 7.73375 19.6305 7.93358 19.7086C8.10328 19.7787 8.29647 19.8249 8.5 19.8249C8.60122 19.8249 8.69256 19.8113 8.75051 19.8028C8.75786 19.8017 8.76468 19.8007 8.7709 19.7998L8.77092 19.7999L8.78242 19.798C8.88462 19.7809 8.98156 19.7493 9.0726 19.7069C9.16406 19.673 9.24967 19.6282 9.32941 19.5757C9.38629 19.5401 9.4327 19.5012 9.45935 19.4785C9.47787 19.4627 9.48893 19.4531 9.49718 19.4458C9.50709 19.4372 9.51297 19.432 9.52288 19.4241ZM9.55438 15.8868L9.56418 15.8775L9.57346 15.8676C9.83532 15.5904 10 15.2089 10 14.8123C10 14.4156 9.83532 14.0341 9.57346 13.7569L9.57359 13.7568L9.56405 13.7472C9.42254 13.6053 9.25482 13.4997 9.06937 13.4269C8.50903 13.1886 7.85561 13.3264 7.43595 13.7472L7.43582 13.7471L7.42654 13.7569C7.16468 14.0341 7 14.4156 7 14.8123C7 15.2089 7.16468 15.5904 7.42654 15.8676L7.43582 15.8775L7.44562 15.8868C7.72209 16.1494 8.10318 16.3151 8.5 16.3151C8.89682 16.3151 9.27791 16.1494 9.55438 15.8868ZM13.0544 19.3966L13.0642 19.3873L13.0735 19.3774C13.3353 19.1002 13.5 18.7187 13.5 18.3221C13.5 17.9254 13.3353 17.5439 13.0735 17.2667L13.0736 17.2666L13.064 17.257C12.4987 16.6901 11.5013 16.6901 10.936 17.257L10.9358 17.2569L10.9265 17.2667C10.6647 17.5439 10.5 17.9254 10.5 18.3221C10.5 18.7187 10.6647 19.1002 10.9265 19.3774L10.9358 19.3873L10.9456 19.3966C11.2221 19.6592 11.6032 19.8249 12 19.8249C12.3968 19.8249 12.7779 19.6592 13.0544 19.3966ZM13.0229 15.9143L13.0498 15.8927L13.0735 15.8676C13.3353 15.5904 13.5 15.2089 13.5 14.8123C13.5 14.4156 13.3353 14.0341 13.0735 13.7569L13.0736 13.7568L13.064 13.7472C12.6444 13.3264 11.991 13.1886 11.4306 13.4269C11.2452 13.4997 11.0775 13.6053 10.936 13.7472L10.9358 13.7471L10.9265 13.7569C10.6647 14.0341 10.5 14.4156 10.5 14.8123C10.5 15.2089 10.6647 15.5904 10.9265 15.8676L10.9358 15.8775L10.9456 15.8868C11.2221 16.1494 11.6032 16.3151 12 16.3151C12.1012 16.3151 12.1926 16.3015 12.2505 16.293C12.2579 16.2919 12.2647 16.2909 12.2709 16.29L12.2709 16.2901L12.2824 16.2882C12.3846 16.2711 12.4816 16.2395 12.5726 16.1971C12.6673 16.162 12.7558 16.1152 12.8379 16.0603L12.8559 16.0482L12.8729 16.0346L13.0229 15.9143ZM16.5544 19.3966L16.5642 19.3873L16.5735 19.3774C16.8353 19.1002 17 18.7187 17 18.3221C17 17.9254 16.8353 17.5439 16.5735 17.2667L16.5736 17.2666L16.564 17.257C15.9987 16.6901 15.0013 16.6901 14.436 17.257L14.4358 17.2569L14.4265 17.2667C14.1647 17.5439 14 17.9254 14 18.3221C14 18.7187 14.1647 19.1002 14.4265 19.3774L14.4358 19.3873L14.4456 19.3966C14.7221 19.6592 15.1032 19.8249 15.5 19.8249C15.8968 19.8249 16.2779 19.6592 16.5544 19.3966ZM16.5229 15.9143L16.5498 15.8927L16.5735 15.8676C16.8353 15.5904 17 15.2089 17 14.8123C17 14.4156 16.8353 14.0341 16.5735 13.7569L16.5498 13.7319L16.5229 13.7103L16.4479 13.6501L16.3729 13.5899L16.3559 13.5764L16.3379 13.5643C16.2558 13.5094 16.1673 13.4625 16.0726 13.4275C15.9841 13.3862 15.89 13.3552 15.7909 13.3378C15.5014 13.2812 15.2025 13.3085 14.9282 13.4278C14.7311 13.5058 14.5831 13.6135 14.455 13.7291L14.4402 13.7424L14.4265 13.7569C14.1647 14.0341 14 14.4156 14 14.8123C14 15.2089 14.1647 15.5904 14.4265 15.8676L14.4358 15.8775L14.4456 15.8868C14.7221 16.1494 15.1032 16.3151 15.5 16.3151C15.5968 16.3151 15.6983 16.3004 15.7598 16.2916C15.7636 16.291 15.7674 16.2905 15.7709 16.29L15.7709 16.2901L15.7824 16.2882C15.8846 16.2711 15.9816 16.2395 16.0726 16.1971C16.1673 16.162 16.2558 16.1152 16.3379 16.0603L16.3559 16.0482L16.3729 16.0346L16.5229 15.9143ZM4 11.1406H20C20.2725 11.1406 20.5 11.3667 20.5 11.6434V17.8207C20.5 19.2486 20.1439 20.362 19.4456 21.1161C18.7538 21.8633 17.6543 22.3347 16 22.3347H8C6.34571 22.3347 5.24623 21.8633 4.55437 21.1161C3.85608 20.362 3.5 19.2486 3.5 17.8207V11.6434C3.5 11.3667 3.72746 11.1406 4 11.1406Z" fill="black" stroke="black"/>
</svg>
