<svg width="24" height="24" viewBox="0 0 24 24" fill="none" xmlns="http://www.w3.org/2000/svg">
<path d="M3.35288 15.0496L2.6227 15.2209L3.35288 15.0496ZM3.35288 8.95043L2.6227 8.77915L3.35288 8.95043ZM20.6471 8.95044L19.9169 9.12171L20.6471 8.95044ZM20.6471 15.0496L19.9169 14.8783L20.6471 15.0496ZM15.0496 20.6471L14.8783 19.9169L15.0496 20.6471ZM8.95044 20.6471L8.77916 21.3773L8.95044 20.6471ZM8.95043 3.35288L8.77916 2.6227L8.95043 3.35288ZM15.0496 3.35288L14.8783 4.08306L15.0496 3.35288ZM4.08306 14.8783C3.63898 12.9851 3.63898 11.0149 4.08306 9.12171L2.6227 8.77915C2.12577 10.8976 2.12577 13.1024 2.6227 15.2209L4.08306 14.8783ZM19.9169 9.12171C20.361 11.0149 20.361 12.9851 19.9169 14.8783L21.3773 15.2208C21.8742 13.1024 21.8742 10.8976 21.3773 8.77916L19.9169 9.12171ZM14.8783 19.9169C12.9851 20.361 11.0149 20.361 9.12171 19.9169L8.77916 21.3773C10.8976 21.8742 13.1024 21.8742 15.2208 21.3773L14.8783 19.9169ZM9.12171 4.08306C11.0149 3.63898 12.9851 3.63898 14.8783 4.08306L15.2208 2.6227C13.1024 2.12577 10.8976 2.12577 8.77916 2.6227L9.12171 4.08306ZM9.12171 19.9169C6.62161 19.3305 4.6695 17.3784 4.08306 14.8783L2.6227 15.2209C3.33924 18.2756 5.72441 20.6608 8.77916 21.3773L9.12171 19.9169ZM15.2208 21.3773C18.2756 20.6608 20.6608 18.2756 21.3773 15.2208L19.9169 14.8783C19.3305 17.3784 17.3784 19.3305 14.8783 19.9169L15.2208 21.3773ZM14.8783 4.08306C17.3784 4.6695 19.3305 6.62161 19.9169 9.12171L21.3773 8.77916C20.6608 5.72441 18.2756 3.33924 15.2208 2.6227L14.8783 4.08306ZM8.77916 2.6227C5.72441 3.33924 3.33924 5.72441 2.6227 8.77915L4.08306 9.12171C4.6695 6.6216 6.62161 4.6695 9.12171 4.08306L8.77916 2.6227Z" fill="black"/>
<path d="M8.12891 15.1205C8.12891 15.5348 8.46469 15.8705 8.87891 15.8705C9.29312 15.8705 9.62891 15.5348 9.62891 15.1205H8.12891ZM9.62891 10.9595C9.62891 10.5452 9.29312 10.2095 8.87891 10.2095C8.46469 10.2095 8.12891 10.5452 8.12891 10.9595H9.62891ZM14.3705 15.1205C14.3705 15.5348 14.7063 15.8705 15.1205 15.8705C15.5348 15.8705 15.8705 15.5348 15.8705 15.1205H14.3705ZM15.8705 11.9997C15.8705 11.5855 15.5348 11.2497 15.1205 11.2497C14.7063 11.2497 14.3705 11.5855 14.3705 11.9997H15.8705ZM11.2497 14.0803C11.2497 14.4945 11.5855 14.8303 11.9997 14.8303C12.4139 14.8303 12.7497 14.4945 12.7497 14.0803H11.2497ZM12.7497 8.87891C12.7497 8.46469 12.4139 8.12891 11.9997 8.12891C11.5855 8.12891 11.2497 8.46469 11.2497 8.87891H12.7497ZM9.62891 15.1205V10.9595H8.12891V15.1205H9.62891ZM15.8705 15.1205V11.9997H14.3705V15.1205H15.8705ZM12.7497 14.0803V8.87891H11.2497V14.0803H12.7497Z" fill="black"/>
</svg>
