<svg width="24" height="24" viewBox="0 0 24 24" fill="none" xmlns="http://www.w3.org/2000/svg">
<path d="M6.06257 14.0939L5.33239 14.2652L6.06257 14.0939ZM6.06257 9.90606L6.79275 10.0773L6.06257 9.90606ZM17.9374 9.90607L17.2072 10.0773L17.9374 9.90607ZM17.9374 14.0939L17.2072 13.9227L17.9374 14.0939ZM14.0939 17.9374L14.2652 18.6676L14.0939 17.9374ZM9.90604 17.9374L9.73476 18.6676L9.90604 17.9374ZM9.90603 6.0626L9.73476 5.33242L9.90603 6.0626ZM14.0939 6.0626L13.9226 6.79278L14.0939 6.0626ZM12 5.8203L12 6.5703L12 5.8203ZM12.75 3C12.75 2.58579 12.4142 2.25 12 2.25C11.5858 2.25 11.25 2.58579 11.25 3H12.75ZM9.53571 3C9.53571 2.58579 9.19993 2.25 8.78571 2.25C8.3715 2.25 8.03571 2.58579 8.03571 3H9.53571ZM15.9642 3C15.9642 2.58579 15.6284 2.25 15.2142 2.25C14.8 2.25 14.4642 2.58579 14.4642 3H15.9642ZM5.82027 12H6.57027H5.82027ZM3 11.25C2.58579 11.25 2.25 11.5858 2.25 12C2.25 12.4142 2.58579 12.75 3 12.75V11.25ZM3 8.03571C2.58579 8.03571 2.25 8.3715 2.25 8.78571C2.25 9.19993 2.58579 9.53571 3 9.53571V8.03571ZM6.46641 15.2143L7.13785 14.8801L6.46641 15.2143ZM3 14.4643C2.58579 14.4643 2.25 14.8001 2.25 15.2143C2.25 15.6285 2.58579 15.9643 3 15.9643V14.4643ZM11.25 21C11.25 21.4142 11.5858 21.75 12 21.75C12.4142 21.75 12.75 21.4142 12.75 21H11.25ZM8.78571 17.5336L9.11989 16.8621L8.78571 17.5336ZM8.03571 21C8.03571 21.4142 8.3715 21.75 8.78571 21.75C9.19993 21.75 9.53571 21.4142 9.53571 21H8.03571ZM14.4642 21C14.4642 21.4142 14.8 21.75 15.2142 21.75C15.6284 21.75 15.9642 21.4142 15.9642 21H14.4642ZM21 12.75C21.4142 12.75 21.75 12.4142 21.75 12C21.75 11.5858 21.4142 11.25 21 11.25V12.75ZM21 9.53571C21.4142 9.53571 21.75 9.19993 21.75 8.78571C21.75 8.3715 21.4142 8.03571 21 8.03571V9.53571ZM17.5335 15.2143L16.8621 14.8801L17.5335 15.2143ZM21 15.9643C21.4142 15.9643 21.75 15.6285 21.75 15.2143C21.75 14.8001 21.4142 14.4643 21 14.4643V15.9643ZM10.0773 6.79278C10.7096 6.64446 11.3548 6.5703 12 6.5703L12 5.0703C11.2399 5.0703 10.4797 5.15767 9.73476 5.33242L10.0773 6.79278ZM12 6.5703C12.6452 6.5703 13.2903 6.64446 13.9226 6.79278L14.2652 5.33242C13.5202 5.15768 12.7601 5.0703 12 5.0703L12 6.5703ZM12.75 5.8203V3H11.25V5.8203H12.75ZM9.73476 5.33242C9.28482 5.43796 8.85494 5.59422 8.45154 5.79499L9.11989 7.13787C9.42058 6.98821 9.74122 6.87162 10.0773 6.79278L9.73476 5.33242ZM9.53571 6.46643V3H8.03571V6.46643H9.53571ZM13.9226 6.79278C14.2587 6.87162 14.5794 6.98821 14.8801 7.13787L15.5484 5.79499C15.145 5.59422 14.7151 5.43796 14.2652 5.33242L13.9226 6.79278ZM15.9642 6.46643V3H14.4642V6.46643H15.9642ZM6.79275 13.9227C6.64443 13.2904 6.57027 12.6452 6.57027 12H5.07027C5.07027 12.7601 5.15764 13.5203 5.33239 14.2652L6.79275 13.9227ZM6.57027 12C6.57027 11.3548 6.64443 10.7096 6.79275 10.0773L5.33239 9.73479C5.15764 10.4797 5.07027 11.2399 5.07027 12H6.57027ZM5.82027 11.25H3V12.75H5.82027V11.25ZM8.45154 5.79499C7.30123 6.36749 6.36749 7.30123 5.79498 8.45154L7.13785 9.11989C7.56491 8.26183 8.26182 7.56492 9.11989 7.13787L8.45154 5.79499ZM5.79498 8.45154C5.5942 8.85495 5.43793 9.28484 5.33239 9.73479L6.79275 10.0773C6.87159 9.74124 6.98819 9.42059 7.13785 9.11989L5.79498 8.45154ZM6.46641 8.03571H3V9.53571H6.46641V8.03571ZM7.13785 14.8801C6.98819 14.5794 6.87159 14.2588 6.79275 13.9227L5.33239 14.2652C5.43793 14.7152 5.5942 15.1451 5.79498 15.5485L7.13785 14.8801ZM6.46641 14.4643H3V15.9643H6.46641V14.4643ZM13.9226 17.2072C13.2903 17.3555 12.6452 17.4297 12 17.4297L12 18.9297C12.7601 18.9297 13.5202 18.8423 14.2652 18.6676L13.9226 17.2072ZM12 17.4297C11.3548 17.4297 10.7096 17.3555 10.0773 17.2072L9.73476 18.6676C10.4797 18.8423 11.2399 18.9297 12 18.9297L12 17.4297ZM11.25 18.1797V21H12.75V18.1797H11.25ZM10.0773 17.2072C9.74122 17.1284 9.42058 17.0118 9.11989 16.8621L8.45154 18.205C8.85494 18.4058 9.28483 18.562 9.73476 18.6676L10.0773 17.2072ZM9.11989 16.8621C8.26182 16.4351 7.56491 15.7382 7.13785 14.8801L5.79498 15.5485C6.36749 16.6988 7.30123 17.6325 8.45154 18.205L9.11989 16.8621ZM8.03571 17.5336V21H9.53571V17.5336H8.03571ZM14.2652 18.6676C14.7151 18.562 15.145 18.4058 15.5484 18.205L14.88 16.8621C14.5794 17.0118 14.2587 17.1284 13.9226 17.2072L14.2652 18.6676ZM14.4642 17.5336V21H15.9642V17.5336H14.4642ZM17.2072 10.0773C17.3555 10.7097 17.4297 11.3548 17.4297 12L18.9297 12C18.9297 11.2399 18.8423 10.4798 18.6675 9.73479L17.2072 10.0773ZM17.4297 12C17.4297 12.6452 17.3555 13.2904 17.2072 13.9227L18.6676 14.2652C18.8423 13.5203 18.9297 12.7601 18.9297 12L17.4297 12ZM18.1797 12.75H21V11.25H18.1797V12.75ZM14.8801 7.13787C15.7381 7.56492 16.435 8.26183 16.8621 9.11989L18.205 8.45154C17.6324 7.30123 16.6987 6.36749 15.5484 5.79499L14.8801 7.13787ZM16.8621 9.11989C17.0117 9.42059 17.1283 9.74124 17.2072 10.0773L18.6675 9.73479C18.562 9.28484 18.4057 8.85495 18.205 8.45154L16.8621 9.11989ZM17.5335 9.53571H21V8.03571H17.5335V9.53571ZM15.5484 18.205C16.6987 17.6325 17.6324 16.6988 18.205 15.5485L16.8621 14.8801C16.435 15.7382 15.7381 16.4351 14.88 16.8621L15.5484 18.205ZM18.205 15.5485C18.4057 15.1451 18.562 14.7152 18.6676 14.2652L17.2072 13.9227C17.1283 14.2588 17.0117 14.5794 16.8621 14.8801L18.205 15.5485ZM17.5335 15.9643H21V14.4643H17.5335V15.9643Z" fill="black"/>
<path d="M9.95939 12.8059C9.83506 12.2758 9.83506 11.7242 9.95939 11.1941L8.49903 10.8516C8.32184 11.6069 8.32184 12.3931 8.49903 13.1484L9.95939 12.8059ZM14.0406 11.1941C14.1649 11.7242 14.1649 12.2758 14.0406 12.8059L15.501 13.1484C15.6782 12.3931 15.6782 11.6069 15.501 10.8516L14.0406 11.1941ZM12.8059 14.0406C12.2758 14.1649 11.7242 14.1649 11.1941 14.0406L10.8516 15.501C11.6069 15.6782 12.3931 15.6782 13.1484 15.501L12.8059 14.0406ZM11.1941 9.95939C11.7242 9.83506 12.2758 9.83506 12.8059 9.95939L13.1484 8.49903C12.3931 8.32184 11.6069 8.32184 10.8516 8.49903L11.1941 9.95939ZM11.1941 14.0406C10.5815 13.8969 10.1031 13.4185 9.95939 12.8059L8.49903 13.1484C8.77284 14.3157 9.68427 15.2272 10.8516 15.501L11.1941 14.0406ZM13.1484 15.501C14.3157 15.2272 15.2272 14.3157 15.501 13.1484L14.0406 12.8059C13.8969 13.4185 13.4185 13.8969 12.8059 14.0406L13.1484 15.501ZM12.8059 9.95939C13.4185 10.1031 13.8969 10.5815 14.0406 11.1941L15.501 10.8516C15.2272 9.68427 14.3157 8.77284 13.1484 8.49903L12.8059 9.95939ZM10.8516 8.49903C9.68427 8.77284 8.77284 9.68427 8.49903 10.8516L9.95939 11.1941C10.1031 10.5815 10.5815 10.1031 11.1941 9.95939L10.8516 8.49903Z" fill="black"/>
</svg>
