<svg width="24" height="24" viewBox="0 0 24 24" fill="none" xmlns="http://www.w3.org/2000/svg">
<path d="M18.2758 15.8064V15.0564V15.8064ZM21.4152 11.7916L20.6818 11.9488L20.6818 11.9488L21.4152 11.7916ZM21.4262 11.8432L22.1596 11.686L22.1596 11.686L21.4262 11.8432ZM21.4262 13.2543L20.6929 13.0971L21.4262 13.2543ZM18.3284 9.29102V8.54102V9.29102ZM17.3008 15.8064L16.5749 15.6179L16.3312 16.5564H17.3008V15.8064ZM17.9198 9.29102V8.54102H17.1197L17.1714 9.33942L17.9198 9.29102ZM18.2758 15.0564H17.7868V16.5564H18.2758V15.0564ZM20.6818 11.9488L20.6929 12.0003L22.1596 11.686L22.1485 11.6345L20.6818 11.9488ZM20.6929 12.0003C20.7704 12.3618 20.7704 12.7357 20.6929 13.0971L22.1596 13.4115C22.2815 12.8428 22.2815 12.2547 22.1596 11.686L20.6929 12.0003ZM18.2758 16.5564C20.1495 16.5564 21.7667 15.2448 22.1596 13.4115L20.6929 13.0971C20.4476 14.2415 19.4396 15.0564 18.2758 15.0564V16.5564ZM18.3284 10.041C19.4615 10.041 20.443 10.8345 20.6818 11.9488L22.1485 11.6345C21.7621 9.8312 20.1714 8.54102 18.3284 8.54102V10.041ZM17.7868 15.0564H17.3008V16.5564H17.7868V15.0564ZM17.1714 9.33942C17.3079 11.4505 17.1066 13.5702 16.5749 15.6179L18.0267 15.9949C18.5986 13.7926 18.8151 11.5129 18.6682 9.24261L17.1714 9.33942ZM18.3284 8.54102H17.9198V10.041H18.3284V8.54102Z" fill="black"/>
<path d="M7.27344 3.22264L7.16016 2.48124V2.48124L7.27344 3.22264ZM13.1359 3.22264L13.2491 2.48125L13.1359 3.22264ZM12.8338 20.7684L12.9649 21.5069L12.8338 20.7684ZM7.57549 20.7684L7.70658 20.03L7.70658 20.03L7.57549 20.7684ZM3.54889 17.301L4.26554 17.0798L3.54889 17.301ZM2.6595 7.60631L1.91457 7.51925V7.51925L2.6595 7.60631ZM17.8223 8.22692L17.0774 8.31399V8.31399L17.8223 8.22692ZM17.0446 16.7041L16.328 16.4829L16.328 16.4829L17.0446 16.7041ZM2.69573 7.29633L3.44066 7.3834L3.44066 7.3834L2.69573 7.29633ZM6.50788 3.33961L6.62115 4.08101L6.50788 3.33961ZM7.44142 20.7446L7.31032 21.4831L7.31033 21.4831L7.44142 20.7446ZM16.9007 17.1706L17.6173 17.3918L17.6173 17.3918L16.9007 17.1706ZM17.739 7.51366L18.4839 7.4266V7.4266L17.739 7.51366ZM13.6857 3.30665L13.5724 4.04805L13.6857 3.30665ZM17.2998 15.8057L16.5739 15.6172L17.2998 15.8057ZM17.9188 9.29022L17.1704 9.33863L17.9188 9.29022ZM16.994 7.60073L17.0774 8.31399L18.5673 8.13986L18.4839 7.4266L16.994 7.60073ZM16.328 16.4829L16.184 16.9494L17.6173 17.3918L17.7613 16.9253L16.328 16.4829ZM3.40443 7.69338L3.44066 7.3834L1.9508 7.20926L1.91457 7.51925L3.40443 7.69338ZM7.70658 20.03L7.57251 20.0062L7.31033 21.4831L7.4444 21.5069L7.70658 20.03ZM6.62115 4.08101L7.38671 3.96404L7.16016 2.48124L6.3946 2.59821L6.62115 4.08101ZM13.0226 3.96404L13.5724 4.04805L13.799 2.56525L13.2491 2.48125L13.0226 3.96404ZM7.38671 3.96404C9.25456 3.67865 11.1547 3.67865 13.0226 3.96404L13.2491 2.48125C11.2311 2.17292 9.17817 2.17292 7.16016 2.48124L7.38671 3.96404ZM12.7027 20.03C11.0502 20.3233 9.35911 20.3233 7.70658 20.03L7.44439 21.5069C9.27036 21.831 11.1389 21.831 12.9649 21.5069L12.7027 20.03ZM4.26554 17.0798C3.32903 14.0455 3.0357 10.8482 3.40443 7.69338L1.91457 7.51925C1.52163 10.8812 1.83421 14.2884 2.83225 17.5222L4.26554 17.0798ZM3.44066 7.3834C3.63875 5.68851 4.94189 4.33758 6.62115 4.08101L6.3946 2.59821C4.04519 2.95717 2.22702 4.84591 1.9508 7.20926L3.44066 7.3834ZM2.83225 17.5222C3.46678 19.5781 5.1945 21.1075 7.31032 21.4831L7.57252 20.0062C6.01169 19.7291 4.73482 18.6003 4.26554 17.0798L2.83225 17.5222ZM16.184 16.9494C15.69 18.55 14.3459 19.7383 12.7027 20.03L12.9649 21.5069C15.1631 21.1166 16.9581 19.5278 17.6173 17.3918L16.184 16.9494ZM18.4839 7.4266C18.1927 4.93489 16.2758 2.94369 13.799 2.56525L13.5724 4.04805C15.3791 4.32409 16.781 5.77749 16.994 7.60073L18.4839 7.4266ZM16.5739 15.6172C16.4985 15.9073 16.4166 16.1959 16.328 16.4829L17.7613 16.9253C17.8565 16.6166 17.9447 16.3062 18.0257 15.9942L16.5739 15.6172ZM17.0774 8.31399C17.1173 8.65508 17.1483 8.99674 17.1704 9.33863L18.6672 9.24181C18.6435 8.87413 18.6101 8.50669 18.5673 8.13986L17.0774 8.31399ZM17.1704 9.33863C17.3069 11.4497 17.1056 13.5694 16.5739 15.6172L18.0257 15.9942C18.5976 13.7918 18.8141 11.5122 18.6672 9.24181L17.1704 9.33863Z" fill="black"/>
<path d="M6.75 11.5C6.75 11.0858 6.41421 10.75 6 10.75C5.58579 10.75 5.25 11.0858 5.25 11.5H6.75ZM6.32918 16.8354C6.51442 17.2059 6.96493 17.3561 7.33541 17.1708C7.70589 16.9856 7.85606 16.5351 7.67082 16.1646L6.32918 16.8354ZM5.25 11.5V12.2639H6.75V11.5H5.25ZM5.25 12.2639C5.25 13.8509 5.61948 15.416 6.32918 16.8354L7.67082 16.1646C7.06526 14.9535 6.75 13.618 6.75 12.2639H5.25Z" fill="black"/>
</svg>
