<svg width="44" height="44" viewBox="0 0 44 44" fill="none" xmlns="http://www.w3.org/2000/svg">
<g clip-path="url(#clip0_4125_576)">
<path d="M31.0591 25.4518H12.9414V18.5498H31.0591V25.4518Z" fill="#FFD6D6"/>
<path d="M4.31373 25.4518H0V18.5498H4.31373V25.4518Z" fill="#FFD6D6"/>
<path d="M44.0012 25.4518H39.6875V18.5498H44.0012V25.4518Z" fill="#FFD6D6"/>
<path d="M12.9394 11.6475H8.62569C8.14928 11.6475 7.76294 12.0337 7.76294 12.5102V15.0984H4.31196C3.83556 15.0984 3.44922 15.4847 3.44922 15.9612V28.0396C3.44922 28.5161 3.83556 28.9024 4.31196 28.9024H7.76294V31.4906C7.76294 31.9671 8.14928 32.3534 8.62569 32.3534H12.9394C13.4159 32.3534 13.8022 31.9671 13.8022 31.4906V12.5102C13.8022 12.0337 13.4159 11.6475 12.9394 11.6475ZM5.17471 27.1769V16.8239H7.76294V27.1769H5.17471ZM12.0767 30.6279H9.48843C9.48843 26.8929 9.48843 17.2546 9.48843 13.373H12.0767V30.6279Z" fill="#F92727"/>
<path d="M39.6855 15.0984H36.2345V12.5102C36.2345 12.0337 35.8482 11.6475 35.3718 11.6475H31.0581C30.5817 11.6475 30.1953 12.0337 30.1953 12.5102V31.4906C30.1953 31.9671 30.5817 32.3534 31.0581 32.3534H35.3718C35.8482 32.3534 36.2345 31.9671 36.2345 31.4906V28.9024H39.6855C40.1619 28.9024 40.5483 28.5161 40.5483 28.0396V15.9612C40.5483 15.4847 40.1619 15.0984 39.6855 15.0984ZM34.509 30.6279H31.9208V13.373H34.509V30.6279ZM38.8228 27.1769H36.2345V16.8239H38.8228V27.1769Z" fill="#F92727"/>
</g>
<defs>
<clipPath id="clip0_4125_576">
<rect width="44" height="44" fill="white"/>
</clipPath>
</defs>
</svg>
