<svg width="24" height="24" viewBox="0 0 24 24" fill="none" xmlns="http://www.w3.org/2000/svg">
<path d="M5.53999 20.5235C4.92999 20.5235 4.35999 20.3135 3.94999 19.9235C3.42999 19.4335 3.17999 18.6935 3.26999 17.8935L3.63999 14.6535C3.70999 14.0435 4.07999 13.2335 4.50999 12.7935L12.72 4.10347C14.77 1.93347 16.91 1.87347 19.08 3.92347C21.25 5.97347 21.31 8.11347 19.26 10.2835L11.05 18.9735C10.63 19.4235 9.84999 19.8435 9.23999 19.9435L6.01999 20.4935C5.84999 20.5035 5.69999 20.5235 5.53999 20.5235ZM15.93 3.91347C15.16 3.91347 14.49 4.39347 13.81 5.11347L5.59999 13.8135C5.39999 14.0235 5.16999 14.5235 5.12999 14.8135L4.75999 18.0535C4.71999 18.3835 4.79999 18.6535 4.97999 18.8235C5.15999 18.9935 5.42999 19.0535 5.75999 19.0035L8.97999 18.4535C9.26999 18.4035 9.74999 18.1435 9.94999 17.9335L18.16 9.24347C19.4 7.92347 19.85 6.70347 18.04 5.00347C17.24 4.23347 16.55 3.91347 15.93 3.91347Z" fill="#525252"/>
<path d="M17.3399 11.9528C17.3199 11.9528 17.2899 11.9528 17.2699 11.9528C14.1499 11.6428 11.6399 9.27278 11.1599 6.17278C11.0999 5.76278 11.3799 5.38278 11.7899 5.31278C12.1999 5.25278 12.5799 5.53278 12.6499 5.94278C13.0299 8.36278 14.9899 10.2228 17.4299 10.4628C17.8399 10.5028 18.1399 10.8728 18.0999 11.2828C18.0499 11.6628 17.7199 11.9528 17.3399 11.9528Z" fill="#525252"/>
</svg>
