<svg width="24" height="23" viewBox="0 0 24 23" fill="none" xmlns="http://www.w3.org/2000/svg">
<path d="M13.8793 5.47509L14.3907 6.02374L13.8793 5.47509ZM9.30971 9.73406L9.82106 10.2827L9.30971 9.73406ZM18.1214 9.42879L17.6101 8.88014H17.6101L18.1214 9.42879ZM13.5518 13.6878L13.0405 13.1391L13.5518 13.6878ZM6.35044 17.4879L6.18025 16.7575H6.18025L6.35044 17.4879ZM5.46723 17.6937L5.63743 18.4241H5.63743L5.46723 17.6937ZM5.01156 17.269L5.73595 17.4633H5.73595L5.01156 17.269ZM5.23236 16.4458L5.95676 16.6401L5.95676 16.6401L5.23236 16.4458ZM13.368 4.92644L8.79835 9.1854L9.82106 10.2827L14.3907 6.02374L13.368 4.92644ZM17.6101 8.88014L13.0405 13.1391L14.0632 14.2364L18.6328 9.97744L17.6101 8.88014ZM6.18025 16.7575L5.29704 16.9633L5.63743 18.4241L6.52064 18.2183L6.18025 16.7575ZM5.73595 17.4633L5.95676 16.6401L4.50797 16.2515L4.28717 17.0747L5.73595 17.4633ZM5.29704 16.9633C5.41114 16.9367 5.53355 16.9707 5.62175 17.0529C5.71277 17.1378 5.78151 17.2935 5.73595 17.4633L4.28717 17.0747C4.04593 17.974 4.90999 18.5936 5.63743 18.4241L5.29704 16.9633ZM13.0405 13.1391C11.1527 14.8985 8.78227 16.1512 6.18025 16.7575L6.52064 18.2183C9.36981 17.5545 11.9777 16.1801 14.0632 14.2364L13.0405 13.1391ZM8.79835 9.1854C6.71246 11.1295 5.22701 13.5709 4.50797 16.2515L5.95676 16.6401C6.60052 14.2402 7.93375 12.0417 9.82106 10.2827L8.79835 9.1854ZM16.0004 3.90625C15.0223 3.90625 14.0746 4.26789 13.368 4.92644L14.3907 6.02374C14.8092 5.6337 15.3874 5.40625 16.0004 5.40625V3.90625ZM18.25 7.45194C18.25 7.97677 18.0268 8.49176 17.6101 8.88014L18.6328 9.97744C19.3412 9.31723 19.75 8.41004 19.75 7.45194H18.25ZM19.75 7.45194C19.75 5.44485 18.0206 3.90625 16.0004 3.90625V5.40625C17.2934 5.40625 18.25 6.37099 18.25 7.45194H19.75ZM17.0275 9.52475C16.3239 9.74332 15.3576 9.42889 14.5798 8.7039C13.7903 7.9681 13.5086 7.11454 13.7141 6.53985L12.3017 6.03471C11.8002 7.43687 12.579 8.88963 13.5571 9.80121C14.5467 10.7236 16.055 11.3976 17.4725 10.9572L17.0275 9.52475Z" fill="black"/>
<path d="M13.8793 5.47509L13.368 4.92644L13.368 4.92644L13.8793 5.47509ZM18.1214 9.42879L17.6101 8.88014L17.6101 8.88014L18.1214 9.42879ZM17.25 10.241L17.4725 10.9572L17.6361 10.9064L17.7613 10.7896L17.25 10.241ZM13.0079 6.28728L12.4965 5.73863L12.3631 5.86298L12.3017 6.03471L13.0079 6.28728ZM16.0004 3.90625C15.0223 3.90625 14.0745 4.26789 13.368 4.92644L14.3907 6.02374C14.8092 5.6337 15.3874 5.40625 16.0004 5.40625V3.90625ZM18.25 7.45194C18.25 7.97677 18.0268 8.49176 17.6101 8.88014L18.6328 9.97744C19.3411 9.31723 19.75 8.41003 19.75 7.45194H18.25ZM19.75 7.45194C19.75 5.44485 18.0206 3.90625 16.0004 3.90625V5.40625C17.2934 5.40625 18.25 6.37099 18.25 7.45194H19.75ZM17.0275 9.52475C16.3239 9.74332 15.3576 9.42889 14.5798 8.7039C13.7903 7.9681 13.5085 7.11454 13.7141 6.53985L12.3017 6.03471C11.8002 7.43687 12.579 8.88963 13.5571 9.80121C14.5467 10.7236 16.055 11.3976 17.4725 10.9572L17.0275 9.52475ZM13.368 4.92644L12.4965 5.73863L13.5192 6.83593L14.3907 6.02374L13.368 4.92644ZM17.6101 8.88014L16.7386 9.69233L17.7613 10.7896L18.6328 9.97744L17.6101 8.88014Z" fill="black"/>
</svg>
