<svg width="24" height="24" viewBox="0 0 24 24" fill="none" xmlns="http://www.w3.org/2000/svg">
<path d="M15.58 12.0019C15.58 13.9819 13.98 15.5819 12 15.5819C10.02 15.5819 8.41998 13.9819 8.41998 12.0019C8.41998 10.0219 10.02 8.42188 12 8.42188C13.98 8.42188 15.58 10.0219 15.58 12.0019Z" stroke="#525252" stroke-width="1.5" stroke-linecap="round" stroke-linejoin="round"/>
<path d="M12 20.2688C15.53 20.2688 18.82 18.1887 21.11 14.5887C22.01 13.1787 22.01 10.8087 21.11 9.39875C18.82 5.79875 15.53 3.71875 12 3.71875C8.47003 3.71875 5.18003 5.79875 2.89003 9.39875C1.99003 10.8087 1.99003 13.1787 2.89003 14.5887C5.18003 18.1887 8.47003 20.2688 12 20.2688Z" stroke="#525252" stroke-width="1.5" stroke-linecap="round" stroke-linejoin="round"/>
</svg>
