<svg width="62" height="70" viewBox="0 0 62 70" fill="none" xmlns="http://www.w3.org/2000/svg">
<path d="M41.1571 2.7334H21.3997C20.0074 3.42469 10.3365 9.0012 13.3772 29.2702L17.8977 64.9671H44.6582L49.1787 29.2702C52.2197 9.0012 42.5493 3.42469 41.1571 2.7334Z" fill="#2A2E6D"/>
<path d="M61.6536 70.0007C61.9373 62.3412 57.1132 59.3954 57.1132 59.3954L36.7895 47.9062H25.2111L4.8887 59.3954C4.8887 59.3954 0.0642955 62.3412 0.347975 70.0007H61.6536Z" fill="#F9C5B8"/>
<path d="M23.7656 49.3918H38.2357C35.0299 47.6605 35.8938 41.0049 35.8938 41.0049H26.1076C26.1074 41.0049 26.9718 47.6605 23.7656 49.3918Z" fill="#F9C5B8"/>
<path d="M25.9062 46.0086C29.3635 45.6138 32.7473 44.455 35.7886 42.7418C35.8003 41.7201 35.8929 41.0049 35.8929 41.0049H26.1067C26.1066 41.0049 26.4461 43.6276 25.9062 46.0086Z" fill="#F5A997"/>
<path d="M47.8787 26.1774C47.5742 28.5314 46.2423 30.2797 44.9037 30.0818C43.565 29.8838 42.7269 27.815 43.0311 25.4608C43.3356 23.1066 44.6679 21.3584 46.0067 21.5563C47.3451 21.7543 48.1835 23.8231 47.8787 26.1774Z" fill="#F5A997"/>
<path d="M44.8836 28.3342C44.7021 28.3342 44.5373 28.2108 44.4917 28.0267C44.158 26.6758 44.0063 25.0749 45.4121 23.4448C45.5573 23.2761 45.813 23.2569 45.9817 23.4026C46.1509 23.5483 46.1696 23.8036 46.0239 23.9726C44.804 25.3876 44.9983 26.7072 45.2759 27.833C45.33 28.0497 45.1975 28.2687 44.9805 28.3221C44.9484 28.3301 44.9159 28.3342 44.8836 28.3342Z" fill="#E9837B"/>
<path d="M46.2414 25.9878C46.2168 25.9878 46.1911 25.9855 46.1655 25.9806C45.5177 25.8579 44.8488 25.9798 44.8419 25.9807C44.6224 26.0209 44.4117 25.8772 44.3704 25.6583C44.329 25.4393 44.4729 25.2282 44.6917 25.1865C44.7249 25.18 45.5122 25.0338 46.3165 25.1865C46.5356 25.2282 46.6798 25.4396 46.6381 25.6589C46.6014 25.8528 46.4318 25.9878 46.2414 25.9878Z" fill="#E9837B"/>
<path d="M14.1212 26.1774C14.426 28.5314 15.7578 30.2797 17.0961 30.0818C18.4349 29.8838 19.2731 27.815 18.969 25.4608C18.6642 23.1066 17.3319 21.3584 15.9935 21.5563C14.6547 21.7543 13.8163 23.8231 14.1212 26.1774Z" fill="#F5A997"/>
<path d="M17.1172 28.3343C17.0852 28.3343 17.0523 28.3305 17.0201 28.3223C16.8034 28.2689 16.671 28.0499 16.7247 27.8332C17.0026 26.7074 17.1971 25.3878 15.977 23.9728C15.8312 23.8036 15.8502 23.5485 16.0189 23.4028C16.188 23.2569 16.4436 23.2759 16.5889 23.4449C17.9941 25.0749 17.8426 26.6758 17.5092 28.0269C17.464 28.211 17.2987 28.3343 17.1172 28.3343Z" fill="#E9837B"/>
<path d="M15.759 25.9878C15.5689 25.9878 15.3994 25.8528 15.3627 25.6589C15.321 25.4398 15.4648 25.2282 15.684 25.1865C16.488 25.0338 17.2759 25.18 17.3091 25.1865C17.5282 25.2282 17.6721 25.4398 17.6304 25.6589C17.5886 25.8783 17.3754 26.0213 17.1583 25.9807C17.1471 25.9787 16.4812 25.8582 15.8349 25.9806C15.8096 25.9855 15.784 25.9878 15.759 25.9878Z" fill="#E9837B"/>
<path d="M44.5576 20.5369C44.3176 13.8208 40.1953 5.52399 31.7437 5.56952H30.8804H30.0163C21.5646 5.52399 17.4429 13.8208 17.2025 20.5369C16.9615 27.2872 19.0311 35.0725 23.2354 39.2129C25.2065 41.1537 28.1964 42.0872 30.8804 42.1339C33.5639 42.0872 36.5536 41.1537 38.5247 39.2129C42.7291 35.0725 44.7985 27.2872 44.5576 20.5369Z" fill="#F9C5B8"/>
<path d="M18.1564 19.5879C18.1609 27.5292 17.6406 27.76 17.6406 27.76L18.1564 19.5879Z" fill="#2A2E6D"/>
<path d="M43.9316 27.7372C45.3176 26.6967 44.2179 21.7209 46.1338 21.5817C46.1338 21.5817 50.9781 9.23841 41.1556 2.73292C36.2612 -2.94383e-07 32.0503 0 32.0503 0C10.6392 0.179653 16.0623 21.3254 16.0623 21.3254C17.2326 22.664 16.8621 24.6597 17.6383 27.7603C18.9999 25.759 19.0328 19.716 19.0328 19.716C21.7825 15.7232 23.0312 12.5665 23.0312 12.5665C29.6317 13.24 37.1815 8.85395 37.1815 8.85395C38.2353 13.8801 40.4265 17.6747 42.9687 19.716C42.9687 19.716 43.1213 24.9283 43.9316 27.7372Z" fill="#2A2E6D"/>
<path d="M42.2368 50.9814L51.9055 56.4474C50.6711 60.8212 50.7452 65.4298 50.9141 70.0003H11.0924C11.2619 65.4298 11.3357 60.8213 10.1016 56.4474L19.7704 50.9814C19.7706 50.9814 31.9418 57.7411 42.2368 50.9814Z" fill="#B690C2"/>
<path d="M39.7692 21.683C39.424 19.291 34.3732 19.202 33.3871 20.1666C33.3871 20.1666 33.0067 20.8514 33.4785 21.4913C36.3121 20.4486 38.9278 21.4125 39.7607 21.8619C39.8919 21.8773 39.7692 21.683 39.7692 21.683Z" fill="#2A2E6D"/>
<path d="M21.9936 21.683C21.9936 21.683 21.8709 21.8773 22.0018 21.8619C22.8349 21.4125 25.4507 20.4486 28.2839 21.4913C28.7561 20.8514 28.3756 20.1666 28.3756 20.1666C27.3895 19.202 22.3387 19.291 21.9936 21.683Z" fill="#2A2E6D"/>
<path d="M25.4995 26.7265C26.0946 26.7265 26.5771 25.8177 26.5771 24.6967C26.5771 23.5757 26.0946 22.667 25.4995 22.667C24.9043 22.667 24.4219 23.5757 24.4219 24.6967C24.4219 25.8177 24.9043 26.7265 25.4995 26.7265Z" fill="#2A2D6B"/>
<path d="M36.257 26.7265C36.852 26.7265 37.3343 25.8177 37.3343 24.6967C37.3343 23.5757 36.852 22.667 36.257 22.667C35.662 22.667 35.1797 23.5757 35.1797 24.6967C35.1797 25.8177 35.662 26.7265 36.257 26.7265Z" fill="#2A2D6B"/>
<path d="M31.159 32.8682C31.1081 32.8682 31.0559 32.8583 31.0056 32.8376C30.1365 32.4802 29.6633 32.0784 29.5168 31.5736C29.3233 30.9074 29.7474 30.307 30.1968 29.6713C30.4781 29.2734 30.7687 28.8619 30.9104 28.4313C30.9797 28.2193 31.2086 28.1043 31.4202 28.1734C31.6324 28.2432 31.7478 28.4716 31.6779 28.6835C31.4989 29.2293 31.1579 29.7119 30.8568 30.1377C30.5231 30.6098 30.2081 31.0557 30.2928 31.3479C30.3416 31.5151 30.5578 31.7793 31.3132 32.0901C31.5197 32.1752 31.618 32.4113 31.533 32.6177C31.4689 32.7737 31.3178 32.8682 31.159 32.8682Z" fill="#E9837B"/>
<path d="M30.9686 35.7739C29.0556 35.7739 27.6488 34.8264 27.6279 34.812C27.4441 34.6853 27.3979 34.4337 27.5245 34.2499C27.6508 34.0664 27.9028 34.0202 28.0858 34.1462C28.1968 34.2221 30.8416 35.9833 33.6829 34.1403C33.8698 34.019 34.12 34.072 34.2418 34.2593C34.3632 34.4467 34.3098 34.6969 34.1228 34.8183C33.0183 35.5348 31.9294 35.7739 30.9686 35.7739Z" fill="#E9837B"/>
</svg>
