<svg width="263" height="107" viewBox="0 0 263 107" fill="none" xmlns="http://www.w3.org/2000/svg">
<g clip-path="url(#clip0_4267_3362)">
<path d="M12.0159 107C12.2859 107.269 57.1093 91.9255 57.1093 91.9255L39.963 52.4902L0 67.699L22.0067 80.216L12.0159 107Z" fill="#00A750"/>
<path d="M33.0781 64.3342V10.6323C33.0781 10.6323 94.9128 -0.67336 139.466 -0.000403546C184.02 0.672552 229.923 7.94048 229.923 7.94048V59.4889C229.923 59.4889 90.3225 47.1065 33.0781 64.3342Z" fill="#00A750"/>
<path d="M32.8086 64.3345L57.1104 92.0603V59.4893C57.1104 59.4893 36.7239 61.9119 32.8086 64.3345Z" fill="#096C31"/>
<path d="M33.0764 10.6318C33.2114 10.6318 33.3465 22.6104 33.2114 37.5501C33.0764 52.3551 32.9414 64.4683 32.6714 64.4683C32.5364 64.4683 32.4014 52.4897 32.5364 37.5501C32.6714 22.6104 32.9414 10.6318 33.0764 10.6318Z" fill="#096C31"/>
<path d="M250.984 102.962C250.714 103.231 205.891 87.8874 205.891 87.8874L223.172 48.4521L263.135 63.661L241.128 76.1779L250.984 102.962Z" fill="#00A750"/>
<path d="M230.192 60.2965L205.891 88.0223V57.7393C213.991 58.0084 222.092 58.816 230.192 60.2965Z" fill="#096C31"/>
<path d="M229.922 7.94043C230.057 7.94043 230.327 19.6499 230.462 34.0511C230.597 48.4524 230.462 60.1618 230.192 60.1618C230.057 60.1618 229.787 48.4524 229.652 34.0511C229.652 19.6499 229.787 7.94043 229.922 7.94043Z" fill="#096C31"/>
</g>
<defs>
<clipPath id="clip0_4267_3362">
<rect width="263" height="107" fill="white"/>
</clipPath>
</defs>
</svg>
