<svg width="20" height="20" viewBox="0 0 20 20" fill="none" xmlns="http://www.w3.org/2000/svg">
<path fill-rule="evenodd" clip-rule="evenodd" d="M19.6 10.2251C19.6 9.51605 19.5364 8.83423 19.4182 8.17969H10V12.0479H15.3818C15.15 13.2979 14.4455 14.357 13.3864 15.0661V17.5751H16.6182C18.5091 15.8342 19.6 13.2706 19.6 10.2251Z" fill="#4285F4"/>
<path fill-rule="evenodd" clip-rule="evenodd" d="M10 19.9984C12.7 19.9984 14.9637 19.103 16.6182 17.5757L13.3864 15.0666C12.4909 15.6666 11.3455 16.0212 10 16.0212C7.39548 16.0212 5.19093 14.2621 4.40457 11.8984H1.06366V14.4893C2.70911 17.7575 6.09093 19.9984 10 19.9984Z" fill="#34A853"/>
<path fill-rule="evenodd" clip-rule="evenodd" d="M4.40455 11.8987C4.20455 11.2987 4.09091 10.6578 4.09091 9.99872C4.09091 9.33963 4.20455 8.69872 4.40455 8.09872V5.50781H1.06364C0.386364 6.85781 0 8.38509 0 9.99872C0 11.6124 0.386364 13.1396 1.06364 14.4896L4.40455 11.8987Z" fill="#FBBC05"/>
<path fill-rule="evenodd" clip-rule="evenodd" d="M10 3.97727C11.4682 3.97727 12.7864 4.48182 13.8228 5.47273L16.6909 2.60455C14.9591 0.990909 12.6955 0 10 0C6.09093 0 2.70911 2.24091 1.06366 5.50909L4.40457 8.1C5.19093 5.73636 7.39548 3.97727 10 3.97727Z" fill="#EA4335"/>
</svg>
