<svg width="24" height="25" viewBox="0 0 24 25" fill="none" xmlns="http://www.w3.org/2000/svg">
<path d="M10.0433 3.93311L10.0437 3.9328C11.1277 3.05974 12.8672 3.06482 13.9674 3.94366C13.9676 3.94378 13.9677 3.94391 13.9679 3.94403L20.5136 9.19521C20.5141 9.19565 20.5146 9.19609 20.5152 9.19654C20.8925 9.50562 21.2194 9.98951 21.4303 10.543C21.641 11.096 21.7197 11.6758 21.6463 12.1588L20.3874 19.7135C20.3873 19.7139 20.3872 19.7144 20.3871 19.7148C20.1373 21.1533 18.7422 22.3373 17.3 22.3373H6.70002C5.23664 22.3373 3.87287 21.1823 3.62304 19.7255C3.62298 19.7252 3.62292 19.7248 3.62286 19.7245L2.36322 12.1655L2.36303 12.1644C2.28079 11.6778 2.35463 11.0968 2.56487 10.5439C2.77511 9.99106 3.10601 9.50767 3.4924 9.19852L3.49327 9.19782L10.0433 3.93311ZM12 20.0782C12.6875 20.0782 13.25 19.5121 13.25 18.8261V15.8177C13.25 15.1317 12.6875 14.5656 12 14.5656C11.3126 14.5656 10.75 15.1317 10.75 15.8177V18.8261C10.75 19.5121 11.3126 20.0782 12 20.0782Z" fill="black" stroke="black"/>
</svg>
