<?xml version="1.0" encoding="iso-8859-1"?>
<!-- Generator: Adobe Illustrator 17.1.0, SVG Export Plug-In . SVG Version: 6.00 Build 0)  -->
<!DOCTYPE svg PUBLIC "-//W3C//DTD SVG 1.1//EN" "http://www.w3.org/Graphics/SVG/1.1/DTD/svg11.dtd">
<svg version="1.1" id="Capa_1" xmlns="http://www.w3.org/2000/svg" xmlns:xlink="http://www.w3.org/1999/xlink" x="0px" y="0px"
	 viewBox="0 0 220.919 220.919" style="enable-background:new 0 0 220.919 220.919;" xml:space="preserve">
<path d="M154.251,220.919H66.667c-31.085,0-56.374-25.289-56.374-56.374V91.199c0-2.209,1.791-4,4-4h15.666v-7.464
	C29.959,35.77,65.729,0,109.694,0h1.53c43.966,0,79.734,35.77,79.734,79.735v7.464h15.667c2.209,0,4,1.791,4,4v73.346
	C210.626,195.63,185.336,220.919,154.251,220.919z M18.293,95.199v69.346c0,26.674,21.7,48.374,48.374,48.374h87.584
	c26.674,0,48.375-21.7,48.375-48.374V95.199H18.293z M37.959,87.199h145v-7.464C182.959,40.181,150.779,8,111.225,8h-1.53
	C70.14,8,37.959,40.181,37.959,79.735V87.199z M110.542,190.89h-0.165c-6.707,0-12.164-5.457-12.164-12.164v-16.979
	c-7.011-4.253-11.416-11.933-11.416-20.224c0-13.048,10.615-23.663,23.662-23.663s23.662,10.615,23.662,23.663
	c0,8.29-4.406,15.971-11.415,20.224v16.979C122.706,185.433,117.249,190.89,110.542,190.89z M110.459,125.859
	c-8.636,0-15.662,7.026-15.662,15.663c0,6.066,3.571,11.641,9.098,14.2c1.414,0.655,2.318,2.071,2.318,3.63v19.373
	c0,2.296,1.868,4.164,4.164,4.164h0.165c2.296,0,4.164-1.868,4.164-4.164v-19.373c0-1.559,0.904-2.975,2.318-3.63
	c5.526-2.56,9.097-8.134,9.097-14.2C126.121,132.886,119.095,125.859,110.459,125.859z"/>
<g>
</g>
<g>
</g>
<g>
</g>
<g>
</g>
<g>
</g>
<g>
</g>
<g>
</g>
<g>
</g>
<g>
</g>
<g>
</g>
<g>
</g>
<g>
</g>
<g>
</g>
<g>
</g>
<g>
</g>
</svg>
