<svg width="52" height="52" viewBox="0 0 52 52" fill="none" xmlns="http://www.w3.org/2000/svg">
<path d="M26.0004 37.5926C27.9509 37.5926 29.5321 36.0114 29.5321 34.061C29.5321 32.1105 27.9509 30.5293 26.0004 30.5293C24.0499 30.5293 22.4688 32.1105 22.4688 34.061C22.4688 36.0114 24.0499 37.5926 26.0004 37.5926Z" fill="#FF5D23"/>
<path d="M39.6054 20.649V17.9407C39.6054 12.0907 38.197 4.33398 25.9987 4.33398C13.8004 4.33398 12.392 12.0907 12.392 17.9407V20.649C6.32536 21.4073 4.33203 24.484 4.33203 32.0457V36.0757C4.33203 44.959 7.04036 47.6673 15.9237 47.6673H36.0737C44.957 47.6673 47.6654 44.959 47.6654 36.0757V32.0457C47.6654 24.484 45.672 21.4073 39.6054 20.649ZM25.9987 40.604C22.3804 40.604 19.4554 37.6573 19.4554 34.0607C19.4554 30.4423 22.402 27.5173 25.9987 27.5173C29.5954 27.5173 32.542 30.464 32.542 34.0607C32.542 37.679 29.617 40.604 25.9987 40.604ZM15.9237 20.454C15.7504 20.454 15.5987 20.454 15.4254 20.454V17.9407C15.4254 11.5923 17.2237 7.36732 25.9987 7.36732C34.7737 7.36732 36.572 11.5923 36.572 17.9407V20.4757C36.3987 20.4757 36.247 20.4757 36.0737 20.4757H15.9237V20.454Z" fill="#FF5D23"/>
</svg>
