<svg width="64" height="70" viewBox="0 0 64 70" fill="none" xmlns="http://www.w3.org/2000/svg">
<path d="M63.4527 70.001C63.7435 62.1418 58.7938 59.119 58.7938 59.119L37.9399 47.3301H26.0595L5.20643 59.1188C5.20643 59.1188 0.256705 62.1416 0.547484 70.0008H63.4527V70.001Z" fill="#F9C5B8"/>
<path d="M24.5781 48.8546H39.4256C36.136 47.0782 37.0224 40.249 37.0224 40.249H26.9812C26.9814 40.249 27.8679 47.0782 24.5781 48.8546Z" fill="#F9C5B8"/>
<path d="M26.7734 45.3832C30.3207 44.978 33.7927 43.789 36.9134 42.0312C36.9256 40.9829 37.0202 40.249 37.0202 40.249H26.979C26.9792 40.2489 27.3275 42.94 26.7734 45.3832Z" fill="#F5A997"/>
<path d="M49.3195 25.0348C49.007 27.4503 47.6402 29.244 46.2667 29.0411C44.893 28.838 44.033 26.7151 44.3453 24.2994C44.6578 21.8838 46.0247 20.09 47.3983 20.293C48.7723 20.4963 49.6319 22.6191 49.3195 25.0348Z" fill="#F5A997"/>
<path d="M46.2475 27.2477C46.0612 27.2477 45.8917 27.1211 45.8452 26.9322C45.5029 25.5461 45.3473 23.9034 46.7892 22.2308C46.9389 22.0572 47.2005 22.0382 47.3741 22.1874C47.5476 22.337 47.5671 22.5989 47.4175 22.7724C46.1656 24.2244 46.3652 25.5783 46.6504 26.7336C46.7054 26.9558 46.5697 27.1805 46.3473 27.2355C46.3137 27.2435 46.2803 27.2477 46.2475 27.2477Z" fill="#E9837B"/>
<path d="M47.6419 24.8406C47.6163 24.8406 47.5903 24.8381 47.5643 24.8332C46.8987 24.7071 46.2133 24.8323 46.206 24.8333C45.9806 24.8749 45.7643 24.7272 45.722 24.5024C45.6799 24.2777 45.8271 24.061 46.052 24.0184C46.0858 24.0119 46.895 23.8616 47.7189 24.0184C47.9439 24.061 48.0918 24.2782 48.049 24.5032C48.0111 24.702 47.8371 24.8406 47.6419 24.8406Z" fill="#E9837B"/>
<path d="M14.6813 25.0348C14.9938 27.4503 16.3607 29.244 17.7343 29.0411C19.1078 28.838 19.9679 26.7151 19.6555 24.2994C19.343 21.8838 17.9761 20.09 16.6025 20.293C15.2289 20.4963 14.3689 22.6191 14.6813 25.0348Z" fill="#F5A997"/>
<path d="M17.7549 27.2479C17.7219 27.2479 17.6885 27.2441 17.6552 27.2356C17.4328 27.1808 17.2971 26.9559 17.352 26.7337C17.6373 25.5786 17.8368 24.2245 16.585 22.7725C16.4354 22.599 16.4549 22.3373 16.6283 22.1876C16.8014 22.0382 17.0634 22.0571 17.2133 22.2309C18.6552 23.9035 18.4994 25.5462 18.1572 26.9323C18.1105 27.1214 17.9412 27.2479 17.7549 27.2479Z" fill="#E9837B"/>
<path d="M16.3597 24.8408C16.1643 24.8408 15.9905 24.7022 15.9527 24.5032C15.9099 24.2782 16.0578 24.0612 16.2828 24.0184C17.1073 23.8616 17.9159 24.0119 17.9498 24.0184C18.1749 24.0612 18.3227 24.2783 18.2798 24.5032C18.2371 24.7279 18.0205 24.875 17.7955 24.8333C17.7842 24.8312 17.1008 24.7077 16.4375 24.8332C16.4112 24.8383 16.3853 24.8408 16.3597 24.8408Z" fill="#E9837B"/>
<path d="M45.912 19.2468C45.6658 12.3554 41.4363 3.8421 32.764 3.88886H31.8779H30.9917C22.3192 3.8421 18.09 12.3553 17.8436 19.2468C17.5961 26.1731 19.7198 34.1615 24.0335 38.4099C26.056 40.4014 29.1241 41.3592 31.878 41.4071C34.6317 41.3591 37.6998 40.4014 39.7223 38.4099C44.036 34.1615 46.1596 26.1733 45.912 19.2468Z" fill="#F9C5B8"/>
<path d="M43.7135 20.5252C43.7135 20.5252 44.0815 23.6921 44.2627 26.5263H45.3185C45.8252 23.6707 46.2583 20.4289 47.534 20.3394C47.534 20.3394 50.1578 2.56836 32.7422 2.56836V9.75573C33.3545 9.83228 40.7689 12.0048 41.3336 12.2437C42.7664 12.85 43.4742 19.1037 43.7135 20.5252Z" fill="#2A2E6D"/>
<path d="M19.5678 26.526C19.7436 23.6919 20.0231 20.5249 20.0231 20.5249C20.2626 19.1035 20.9704 12.8497 22.4032 12.2433C22.9678 12.0044 24.9131 10.6664 25.5254 10.5898C26.9394 5.80339 22.7784 4.41309 22.7784 4.41309C13.7006 8.6743 16.2027 20.339 16.2027 20.339C17.4785 20.4285 17.9114 23.6703 18.4181 26.5259H19.5678V26.526Z" fill="#2A2E6D"/>
<path d="M37.9399 47.3301L58.7938 59.119C58.7938 59.119 63.7435 62.1418 63.4527 70.001H0.547484C0.256705 62.1418 5.20643 59.119 5.20643 59.119L26.0595 47.3301C26.0595 47.3301 32.3555 51.1959 37.9399 47.3301Z" fill="#9CAAD8"/>
<path d="M37.9399 47.3301L58.7938 59.119C58.7938 59.119 63.7435 62.1418 63.4527 70.001H0.547484C0.256705 62.1418 5.20643 59.119 5.20643 59.119L26.0595 47.3301C26.0595 47.3301 32.3555 51.1959 37.9399 47.3301Z" fill="#646DB2"/>
<path d="M60.8359 61.0816C59.7739 59.7231 58.7936 59.119 58.7936 59.119L37.9398 47.3301C32.3554 51.1957 26.0594 47.3301 26.0594 47.3301L5.20631 59.119C5.20631 59.119 4.22609 59.7231 3.16406 61.0816H60.8359Z" fill="#7F6DAF"/>
<path d="M28.2248 19.3158C28.1839 19.7101 27.8726 19.9742 27.5291 19.9413C26.2679 19.8185 25.0142 20.0262 23.8604 20.5498C23.5457 20.6918 23.1658 20.5424 22.9998 20.1823C22.8342 19.8231 22.9888 19.3641 23.3588 19.1963C24.6824 18.5956 26.1204 18.3572 27.5667 18.4986C27.9709 18.5378 28.2657 18.9224 28.2248 19.3158Z" fill="#2A2E6D"/>
<path d="M35.5311 19.3158C35.572 19.7101 35.8835 19.9742 36.2269 19.9413C37.488 19.8185 38.7419 20.0262 39.8957 20.5498C40.2104 20.6918 40.5903 20.5424 40.7563 20.1823C40.9219 19.8231 40.7673 19.3641 40.3973 19.1963C39.0737 18.5956 37.6357 18.3572 36.1894 18.4986C35.7852 18.5378 35.4904 18.9224 35.5311 19.3158Z" fill="#2A2E6D"/>
<path d="M31.8779 35.1532C30.1828 35.1532 28.719 34.5858 28.1489 33.7078C28.0243 33.5156 28.0788 33.2588 28.271 33.1341C28.4633 33.0097 28.7201 33.0643 28.8446 33.2562C29.1785 33.7705 30.2701 34.3238 31.8781 34.3238C33.4857 34.3238 34.5773 33.7705 34.9113 33.2562C35.0361 33.0643 35.293 33.0096 35.4849 33.1343C35.6769 33.259 35.7315 33.5158 35.6068 33.7078C35.0364 34.5858 33.5727 35.1532 31.8779 35.1532Z" fill="#E9837B"/>
<path d="M31.7386 31.9776C31.6859 31.9776 31.6325 31.9676 31.581 31.9463C30.6892 31.5794 30.2036 31.1671 30.0532 30.649C29.8547 29.9654 30.2901 29.3495 30.7509 28.6972C31.0396 28.2888 31.3381 27.8667 31.483 27.4248C31.5544 27.2074 31.7887 27.0893 32.0065 27.1603C32.224 27.2317 32.3425 27.4662 32.2711 27.6838C32.0871 28.2436 31.7372 28.7389 31.4283 29.1758C31.086 29.6603 30.7627 30.1179 30.8497 30.4177C30.8994 30.5891 31.1215 30.8605 31.8968 31.1793C32.1085 31.2665 32.2095 31.5088 32.1224 31.7206C32.0564 31.8807 31.9017 31.9776 31.7386 31.9776Z" fill="#E9837B"/>
<path d="M26.3596 25.598C26.9703 25.598 27.4653 24.6655 27.4653 23.5153C27.4653 22.3651 26.9703 21.4326 26.3596 21.4326C25.7489 21.4326 25.2539 22.3651 25.2539 23.5153C25.2539 24.6655 25.7489 25.598 26.3596 25.598Z" fill="#2A2D6B"/>
<path d="M37.3987 25.598C38.0093 25.598 38.5044 24.6655 38.5044 23.5153C38.5044 22.3651 38.0093 21.4326 37.3987 21.4326C36.788 21.4326 36.293 22.3651 36.293 23.5153C36.293 24.6655 36.788 25.598 37.3987 25.598Z" fill="#2A2D6B"/>
<path d="M47.6762 13.1648C36.439 15.1919 33.4811 12.4161 33.4811 12.4161L35.527 14.6769C26.1471 13.0558 23.6832 8.37326 23.6832 8.37326C22.8342 7.2475 22.9332 4.41348 22.9332 4.41348C22.9332 4.41348 23.3827 -1.02551 35.527 0.172334C35.527 0.172489 45.9315 1.7389 47.6762 13.1648Z" fill="#2A2E6D"/>
<path d="M58.7956 59.1187L51.6289 55.0674V70.0007H63.4545C63.7452 62.1415 58.7956 59.1187 58.7956 59.1187Z" fill="#575F99"/>
<path d="M12.3728 55.0674L5.20643 59.1188C5.20643 59.1188 0.256705 62.1416 0.547484 70.0008H12.3728V55.0674Z" fill="#575F99"/>
</svg>
