<svg width="24" height="24" viewBox="0 0 24 24" fill="none" xmlns="http://www.w3.org/2000/svg">
<path d="M4.73677 5.88975C4.39974 5.64895 3.93132 5.72697 3.69053 6.06401C3.44973 6.40104 3.52775 6.86946 3.86479 7.11025L4.73677 5.88975ZM10.081 10.6296L9.64501 11.2399L10.081 10.6296ZM13.916 10.6296L13.4801 10.0194L13.916 10.6296ZM20.1323 7.11025C20.4693 6.86946 20.5473 6.40104 20.3065 6.06401C20.0657 5.72697 19.5973 5.64895 19.2603 5.88975L20.1323 7.11025ZM3.86479 7.11025L9.64501 11.2399L10.517 10.0194L4.73677 5.88975L3.86479 7.11025ZM14.352 11.2399L20.1323 7.11025L19.2603 5.88975L13.4801 10.0194L14.352 11.2399ZM9.64501 11.2399C11.0529 12.2457 12.9442 12.2457 14.352 11.2399L13.4801 10.0194C12.5938 10.6526 11.4033 10.6526 10.517 10.0194L9.64501 11.2399Z" fill="black"/>
<path d="M2.88539 15.1513L3.61329 14.9705L2.88539 15.1513ZM2.88539 8.84875L3.61329 9.02949L2.88539 8.84875ZM21.1146 8.84876L21.8425 8.66801L21.1146 8.84876ZM21.1146 15.1512L21.8425 15.332L21.1146 15.1512ZM15.1156 20.659L14.9533 19.9267H14.9533L15.1156 20.659ZM8.88443 20.659L8.72217 21.3912H8.72218L8.88443 20.659ZM8.88443 3.34105L8.72218 2.60881V2.60881L8.88443 3.34105ZM15.1156 3.34105L14.9533 4.07329L15.1156 3.34105ZM8.43055 20.5584L8.59281 19.8261H8.59281L8.43055 20.5584ZM15.5694 20.5584L15.7317 21.2906H15.7317L15.5694 20.5584ZM15.5694 3.44162L15.7317 2.70938V2.70938L15.5694 3.44162ZM8.43056 3.44162L8.59281 4.17386L8.43056 3.44162ZM8.59281 4.17386L9.04668 4.07329L8.72218 2.60881L8.2683 2.70938L8.59281 4.17386ZM14.9533 4.07329L15.4072 4.17386L15.7317 2.70938L15.2778 2.60881L14.9533 4.07329ZM15.4072 19.8261L14.9533 19.9267L15.2778 21.3912L15.7317 21.2906L15.4072 19.8261ZM9.04668 19.9267L8.59281 19.8261L8.2683 21.2906L8.72217 21.3912L9.04668 19.9267ZM3.61329 14.9705C3.1289 13.0198 3.1289 10.9802 3.61329 9.02949L2.1575 8.668C1.61417 10.8561 1.61417 13.1439 2.1575 15.332L3.61329 14.9705ZM20.3867 9.0295C20.8711 10.9802 20.8711 13.0198 20.3867 14.9705L21.8425 15.332C22.3858 13.1439 22.3858 10.8561 21.8425 8.66801L20.3867 9.0295ZM14.9533 19.9267C13.008 20.3578 10.992 20.3578 9.04668 19.9267L8.72218 21.3912C10.8812 21.8696 13.1188 21.8696 15.2778 21.3912L14.9533 19.9267ZM9.04668 4.07329C10.992 3.64224 13.008 3.64224 14.9533 4.07329L15.2778 2.60881C13.1188 2.1304 10.8812 2.1304 8.72218 2.60881L9.04668 4.07329ZM8.59281 19.8261C6.14627 19.284 4.21736 17.4032 3.61329 14.9705L2.1575 15.332C2.89874 18.3171 5.26576 20.6253 8.2683 21.2906L8.59281 19.8261ZM15.7317 21.2906C18.7342 20.6253 21.1013 18.3171 21.8425 15.332L20.3867 14.9705C19.7826 17.4032 17.8537 19.284 15.4072 19.8261L15.7317 21.2906ZM15.4072 4.17386C17.8537 4.71598 19.7826 6.5968 20.3867 9.0295L21.8425 8.66801C21.1013 5.68288 18.7342 3.3747 15.7317 2.70938L15.4072 4.17386ZM8.2683 2.70938C5.26576 3.3747 2.89874 5.68288 2.1575 8.668L3.61329 9.02949C4.21736 6.59679 6.14627 4.71598 8.59281 4.17386L8.2683 2.70938Z" fill="black"/>
<path d="M2.88539 15.1513L3.61329 14.9705L2.88539 15.1513ZM2.88539 8.84875L3.61329 9.02949L2.88539 8.84875ZM21.1146 8.84876L21.8425 8.66801L21.1146 8.84876ZM20.3867 14.9705C20.2869 15.3725 20.5319 15.7793 20.9339 15.8791C21.3359 15.979 21.7427 15.734 21.8425 15.332L20.3867 14.9705ZM15.1156 20.659L14.9533 19.9267H14.9533L15.1156 20.659ZM8.88443 20.659L8.72217 21.3912H8.72218L8.88443 20.659ZM8.88443 3.34105L8.72218 2.60881V2.60881L8.88443 3.34105ZM15.1156 3.34105L14.9533 4.07329L15.1156 3.34105ZM8.43055 20.5584L8.59281 19.8261H8.59281L8.43055 20.5584ZM15.7317 21.2906C16.1361 21.201 16.3913 20.8005 16.3017 20.3961C16.2121 19.9917 15.8116 19.7365 15.4072 19.8261L15.7317 21.2906ZM15.5694 3.44162L15.7317 2.70938V2.70938L15.5694 3.44162ZM8.43056 3.44162L8.59281 4.17386L8.43056 3.44162ZM8.59281 4.17386L9.04668 4.07329L8.72218 2.60881L8.2683 2.70938L8.59281 4.17386ZM14.9533 4.07329L15.4072 4.17386L15.7317 2.70938L15.2778 2.60881L14.9533 4.07329ZM15.4072 19.8261L14.9533 19.9267L15.2778 21.3912L15.7317 21.2906L15.4072 19.8261ZM9.04668 19.9267L8.59281 19.8261L8.2683 21.2906L8.72217 21.3912L9.04668 19.9267ZM3.61329 14.9705C3.1289 13.0198 3.1289 10.9802 3.61329 9.02949L2.1575 8.668C1.61417 10.8561 1.61417 13.1439 2.1575 15.332L3.61329 14.9705ZM20.3867 9.0295C20.8711 10.9802 20.8711 13.0198 20.3867 14.9705L21.8425 15.332C22.3858 13.1439 22.3858 10.8561 21.8425 8.66801L20.3867 9.0295ZM14.9533 19.9267C13.008 20.3578 10.992 20.3578 9.04668 19.9267L8.72218 21.3912C10.8812 21.8696 13.1188 21.8696 15.2778 21.3912L14.9533 19.9267ZM9.04668 4.07329C10.992 3.64224 13.008 3.64224 14.9533 4.07329L15.2778 2.60881C13.1188 2.1304 10.8812 2.1304 8.72218 2.60881L9.04668 4.07329ZM8.59281 19.8261C6.14627 19.284 4.21736 17.4032 3.61329 14.9705L2.1575 15.332C2.89874 18.3171 5.26576 20.6253 8.2683 21.2906L8.59281 19.8261ZM15.4072 4.17386C17.8537 4.71598 19.7826 6.5968 20.3867 9.0295L21.8425 8.66801C21.1013 5.68288 18.7342 3.3747 15.7317 2.70938L15.4072 4.17386ZM8.2683 2.70938C5.26576 3.3747 2.89874 5.68288 2.1575 8.668L3.61329 9.02949C4.21736 6.59679 6.14627 4.71598 8.59281 4.17386L8.2683 2.70938Z" fill="black"/>
</svg>
