<svg width="24" height="24" viewBox="0 0 24 24" fill="none" xmlns="http://www.w3.org/2000/svg">
<path d="M13 17C13 16.4477 12.5523 16 12 16C11.4477 16 11 16.4477 11 17L13 17ZM11 17.0226C11 17.5749 11.4477 18.0226 12 18.0226C12.5523 18.0226 13 17.5749 13 17.0226L11 17.0226ZM11 17V17.0226L13 17.0226V17L11 17Z" fill="black"/>
<path d="M13.25 7H10.75" stroke="black" stroke-width="1.5" stroke-linecap="round"/>
<path d="M14.9161 20.6215L14.7246 19.8964L14.9161 20.6215ZM9.08393 20.6215L9.2754 19.8964L9.08393 20.6215ZM9.08394 3.3785L8.89247 2.65335L9.08394 3.3785ZM14.9161 3.3785L15.1075 2.65335L14.9161 3.3785ZM19.664 8.74072L20.3982 8.58772V8.58772L19.664 8.74072ZM19.664 15.2593L20.3982 15.4123L19.664 15.2593ZM4.33598 15.2593L3.60175 15.4123H3.60175L4.33598 15.2593ZM4.33598 8.74072L5.07021 8.89372L4.33598 8.74072ZM19.569 15.7151L18.8348 15.5621L18.8348 15.5621L19.569 15.7151ZM19.569 8.28494L18.8348 8.43794L18.8348 8.43794L19.569 8.28494ZM4.43096 8.28494L3.69673 8.13194L4.43096 8.28494ZM4.43096 15.7151L5.16519 15.5621V15.5621L4.43096 15.7151ZM19.3003 14.837C19.7145 14.837 20.0503 14.5012 20.0503 14.087C20.0503 13.6728 19.7145 13.337 19.3003 13.337V14.837ZM4.69969 13.337C4.28548 13.337 3.94969 13.6728 3.94969 14.087C3.94969 14.5012 4.28548 14.837 4.69969 14.837V13.337ZM5.16519 15.5621L5.07021 15.1063L3.60175 15.4123L3.69673 15.8681L5.16519 15.5621ZM5.07021 8.89372L5.16519 8.43794L3.69673 8.13194L3.60175 8.58771L5.07021 8.89372ZM18.8348 8.43794L18.9298 8.89372L20.3982 8.58772L20.3033 8.13193L18.8348 8.43794ZM18.9298 15.1063L18.8348 15.5621L20.3033 15.8681L20.3982 15.4123L18.9298 15.1063ZM14.7246 19.8964C12.9388 20.3679 11.0612 20.3679 9.2754 19.8964L8.89246 21.3466C10.9293 21.8844 13.0707 21.8844 15.1075 21.3466L14.7246 19.8964ZM9.27541 4.10365C11.0612 3.63212 12.9388 3.63212 14.7246 4.10365L15.1075 2.65335C13.0707 2.11555 10.9293 2.11555 8.89247 2.65335L9.27541 4.10365ZM18.9298 8.89372C19.3567 10.9425 19.3567 13.0575 18.9298 15.1063L20.3982 15.4123C20.8673 13.1616 20.8673 10.8384 20.3982 8.58772L18.9298 8.89372ZM5.07021 15.1063C4.64326 13.0575 4.64326 10.9425 5.07021 8.89372L3.60175 8.58771C3.13275 10.8384 3.13275 13.1616 3.60175 15.4123L5.07021 15.1063ZM18.8348 15.5621C18.3957 17.6694 16.8043 19.3472 14.7246 19.8964L15.1075 21.3466C17.737 20.6524 19.7483 18.5313 20.3033 15.8681L18.8348 15.5621ZM20.3033 8.13193C19.7483 5.46874 17.7369 3.34762 15.1075 2.65335L14.7246 4.10365C16.8043 4.65277 18.3957 6.33062 18.8348 8.43794L20.3033 8.13193ZM5.16519 8.43794C5.60432 6.33063 7.1957 4.65277 9.27541 4.10365L8.89247 2.65335C6.26305 3.34762 4.2517 5.46874 3.69673 8.13194L5.16519 8.43794ZM3.69673 15.8681C4.25171 18.5313 6.26305 20.6524 8.89246 21.3466L9.2754 19.8964C7.1957 19.3472 5.60432 17.6694 5.16519 15.5621L3.69673 15.8681ZM19.3003 13.337H4.69969V14.837H19.3003V13.337Z" fill="black"/>
</svg>
