<svg id="Capa_1" enable-background="new 0 0 512 512" height="512" viewBox="0 0 512 512" width="512" xmlns="http://www.w3.org/2000/svg"><path d="m272.009 42.784h78.375c11.075 0 20.052 8.978 20.052 20.052v428.908c0 11.075-8.978 20.052-20.052 20.052h-319.581c-11.075 0-20.052-8.978-20.052-20.052v-428.907c0-11.075 8.978-20.052 20.052-20.052h78.375" fill="#e8834d"/><path d="m350.384 42.784h-18.581c11.074 0 20.052 8.978 20.052 20.052v428.908c0 11.075-8.978 20.052-20.052 20.052h18.581c11.075 0 20.052-8.978 20.052-20.052v-428.907c0-11.075-8.978-20.053-20.052-20.053z" fill="#d66e41"/><path d="m333.735 85.077v384.427c0 2.851-2.311 5.161-5.161 5.161h-275.961c-2.851 0-5.161-2.311-5.161-5.161v-384.427c0-2.851 2.311-5.161 5.161-5.161h275.96c2.851 0 5.162 2.311 5.162 5.161z" fill="#f4e9d3"/><path d="m315.154 79.916v394.75h13.419c2.85 0 5.161-2.311 5.161-5.161v-384.428c0-2.851-2.311-5.161-5.161-5.161z" fill="#e5d6be"/><path d="m258.8 29.612h-33.365v-19.129c0-5.79-4.693-10.483-10.483-10.483h-48.718c-5.789 0-10.482 4.693-10.482 10.483v19.129h-33.365c-7.295 0-13.209 5.914-13.209 13.209v36.355c0 7.295 5.914 13.209 13.209 13.209h43.848 48.718 43.847c7.295 0 13.209-5.914 13.209-13.209v-36.356c0-7.295-5.914-13.208-13.209-13.208z" fill="#ffe55a"/><path d="m206.854 10.483v19.129h18.581v-19.129c0-5.79-4.693-10.483-10.483-10.483h-18.581c5.79 0 10.483 4.693 10.483 10.483z" fill="#ffd91d"/><path d="m258.8 29.612h-18.581c7.295 0 13.209 5.914 13.209 13.209v36.355c0 7.295-5.914 13.209-13.209 13.209h18.581c7.295 0 13.209-5.914 13.209-13.209v-36.356c0-7.295-5.914-13.208-13.209-13.208z" fill="#ffd91d"/><path d="m294.603 147.828h-130.369c-4.285 0-7.757 3.473-7.757 7.757s3.472 7.757 7.757 7.757h130.369c4.284 0 7.757-3.473 7.757-7.757s-3.473-7.757-7.757-7.757z" fill="#e8834d"/><path d="m164.234 191.177h73.274c4.285 0 7.757-3.473 7.757-7.757s-3.473-7.757-7.757-7.757h-73.274c-4.285 0-7.757 3.473-7.757 7.757s3.472 7.757 7.757 7.757z" fill="#e8834d"/><path d="m125.192 144.662-28.553 29.278-12.352-12.012c-3.07-2.988-7.982-2.917-10.969.153-2.987 3.071-2.918 7.983.154 10.969l17.905 17.412c3.027 2.945 8.014 2.876 10.961-.145l33.96-34.824c2.992-3.067 2.93-7.978-.137-10.969-3.07-2.992-7.979-2.928-10.969.138z" fill="#98db7c"/><g fill="#e8834d"><path d="m294.603 226.831h-130.369c-4.285 0-7.757 3.473-7.757 7.757s3.472 7.757 7.757 7.757h130.369c4.284 0 7.757-3.473 7.757-7.757s-3.473-7.757-7.757-7.757z"/><path d="m256.928 321.22h-92.516c-4.276 0-7.742-3.466-7.742-7.742s3.466-7.742 7.742-7.742h92.516c4.276 0 7.742 3.466 7.742 7.742s-3.465 7.742-7.742 7.742z"/><path d="m249.339 349h-84.926c-4.276 0-7.742-3.466-7.742-7.742s3.466-7.742 7.742-7.742h84.926c4.276 0 7.742 3.466 7.742 7.742s-3.466 7.742-7.742 7.742z"/><path d="m253.801 400.069h-89.389c-4.276 0-7.742-3.466-7.742-7.742s3.466-7.742 7.742-7.742h89.389c4.276 0 7.742 3.466 7.742 7.742s-3.465 7.742-7.742 7.742z"/><path d="m261.272 427.849h-96.86c-4.276 0-7.742-3.466-7.742-7.742s3.466-7.742 7.742-7.742h96.86c4.276 0 7.742 3.466 7.742 7.742s-3.466 7.742-7.742 7.742z"/><path d="m237.507 254.665h-73.274c-4.285 0-7.757 3.473-7.757 7.757s3.472 7.757 7.757 7.757h73.274c4.285 0 7.757-3.473 7.757-7.757.001-4.284-3.472-7.757-7.757-7.757z"/></g><path d="m125.192 223.664-28.553 29.278-12.352-12.011c-3.072-2.988-7.982-2.917-10.969.154s-2.918 7.982.154 10.969l17.905 17.412c3.027 2.945 8.014 2.876 10.961-.146l33.96-34.823c2.992-3.067 2.93-7.978-.137-10.969-3.068-2.994-7.979-2.931-10.969.136z" fill="#98db7c"/><path d="m125.192 302.667-28.553 29.278-12.352-12.011c-3.07-2.987-7.982-2.917-10.969.154s-2.918 7.982.154 10.969l17.905 17.411c3.027 2.945 8.014 2.876 10.961-.145l33.96-34.823c2.992-3.067 2.93-7.978-.137-10.97-3.068-2.992-7.979-2.93-10.969.137z" fill="#98db7c"/><path d="m125.192 381.669-28.553 29.278-12.352-12.012c-3.07-2.987-7.982-2.917-10.969.153-2.987 3.072-2.918 7.983.154 10.97l17.905 17.412c3.027 2.945 8.014 2.876 10.961-.145l33.96-34.823c2.992-3.067 2.93-7.978-.137-10.969-3.068-2.994-7.979-2.931-10.969.136z" fill="#98db7c"/><path d="m370.436 256.827c68.938 0 135.032 29.096 130.602 100.276-6.935 111.417-84.371 188.295-130.602 140.386-46.231 47.909-123.667-28.969-130.602-140.386-4.43-71.179 61.664-100.276 130.602-100.276z" fill="#ff4755"/><path d="m370.436 256.827c-3.105 0-6.203.061-9.29.18 65.457 2.528 125.542 32.122 121.312 100.095-5.098 81.915-48.305 145.156-89.201 153.867 45.267 10.313 101.898-59.337 107.782-153.867 4.429-71.178-61.665-100.275-130.603-100.275z" fill="#fc2b3a"/><path d="m432.433 265.318c-22.026 22.026-62.425 17.34-62.425 17.34s-4.686-40.398 17.34-62.425c17.499-17.499 46.594-18.138 57.815-17.662 2.678.114 4.817 2.253 4.931 4.931.478 11.222-.161 40.317-17.661 57.816z" fill="#98db7c"/><path d="m445.14 202.571c-1.706-.072-3.823-.118-6.247-.083-.095 13.414-2.613 37.237-17.755 52.379-14.833 14.833-37.996 17.552-51.545 17.745-.043 6.099.415 10.046.415 10.046s40.398 4.686 62.425-17.34c17.499-17.499 18.138-46.594 17.662-57.815-.114-2.686-2.269-4.819-4.955-4.932z" fill="#82d361"/><path d="m370.446 311.376c-.349 0-.702-.024-1.056-.072-4.231-.577-7.194-4.47-6.627-8.699.032-.255 1.739-14.108-2.79-31.267-5.974-22.628-19.516-40.211-40.252-52.26-3.697-2.148-4.952-6.887-2.803-10.584 2.147-3.698 6.884-4.953 10.584-2.805 30.684 17.83 42.83 43.751 47.615 62.357 5.16 20.063 3.083 35.965 2.992 36.633-.532 3.882-3.853 6.697-7.663 6.697z" fill="#62c136"/><path d="m370.435 311.375c-23.998 0-40.076-12.49-40.748-13.022-3.355-2.651-3.924-7.52-1.273-10.874 2.65-3.355 7.519-3.923 10.874-1.273.096.074 12.722 9.685 31.147 9.685 18.426 0 31.052-9.611 31.177-9.709 3.37-2.609 8.231-2.016 10.853 1.339 2.626 3.355 2.061 8.19-1.281 10.832-.672.533-16.75 13.022-40.749 13.022z" fill="#e52940"/></svg>