<svg width="24" height="24" viewBox="0 0 24 24" fill="none" xmlns="http://www.w3.org/2000/svg">
<path d="M9.21074 7.45093L9.21295 7.4522L12.303 9.2322L15.3907 11.0109C15.3911 11.0111 15.3914 11.0113 15.3917 11.0115C16.2229 11.4913 16.4456 11.864 16.5006 11.9994C16.4456 12.1348 16.2229 12.5075 15.3917 12.9873C15.3914 12.9875 15.3911 12.9877 15.3907 12.9879L12.303 14.7666L9.21295 16.5466L9.21074 16.5479C8.38026 17.0271 7.94613 17.0345 7.80075 17.0147C7.71094 16.8988 7.5 16.5189 7.5 15.5594V11.9994V8.43941C7.5 7.4799 7.71094 7.10005 7.80075 6.98413C7.94613 6.96431 8.38025 6.97171 9.21074 7.45093ZM16.5173 12.0546C16.5169 12.0547 16.5156 12.0497 16.5144 12.0392C16.5171 12.0493 16.5177 12.0545 16.5173 12.0546ZM16.5144 11.9596C16.5156 11.9491 16.5169 11.9441 16.5173 11.9442C16.5177 11.9443 16.5171 11.9496 16.5144 11.9596ZM7.744 17.0014C7.74409 17.0011 7.74917 17.0024 7.75893 17.0067C7.74879 17.004 7.7439 17.0018 7.744 17.0014ZM7.82866 17.047C7.83709 17.0532 7.84073 17.0568 7.84045 17.0571C7.84016 17.0574 7.83595 17.0543 7.82866 17.047ZM7.84045 6.94171C7.84073 6.94198 7.83709 6.94563 7.82866 6.95185C7.83595 6.94455 7.84016 6.94144 7.84045 6.94171ZM7.75893 6.99214C7.74917 6.99641 7.74409 6.99776 7.744 6.99737C7.7439 6.99698 7.74879 6.99484 7.75893 6.99214Z" stroke="white" stroke-width="7" stroke-miterlimit="10" stroke-linecap="round" stroke-linejoin="round"/>
</svg>
