<svg width="64" height="64" viewBox="0 0 64 64" fill="none" xmlns="http://www.w3.org/2000/svg">
<path d="M47.2164 36.3788L37.6324 34.9858L33.3454 26.2998C33.2215 26.0489 33.0299 25.8376 32.7922 25.6899C32.5546 25.5422 32.2803 25.4639 32.0004 25.4639C31.7206 25.4639 31.4463 25.5422 31.2086 25.6899C30.9709 25.8376 30.7793 26.0489 30.6554 26.2998L26.3684 34.9848L16.7844 36.3778C16.5074 36.418 16.2471 36.535 16.0331 36.7155C15.8191 36.8959 15.6598 37.1327 15.5733 37.3989C15.4869 37.6652 15.4766 37.9504 15.5438 38.2221C15.611 38.4939 15.7529 38.7415 15.9534 38.9368L22.8894 45.6968L21.2514 55.2418C21.2039 55.5178 21.2345 55.8016 21.3399 56.0611C21.4454 56.3205 21.6213 56.5453 21.8479 56.7099C22.0744 56.8746 22.3425 56.9725 22.6219 56.9926C22.9012 57.0127 23.1806 56.9543 23.4284 56.8238L32.0004 52.3168L40.5724 56.8248C40.8202 56.9553 41.0996 57.0137 41.379 56.9936C41.6583 56.9735 41.9265 56.8756 42.153 56.7109C42.3796 56.5463 42.5555 56.3215 42.6609 56.0621C42.7663 55.8026 42.797 55.5188 42.7494 55.2428L41.1114 45.6998L48.0474 38.9398C48.2486 38.7446 48.391 38.4968 48.4585 38.2248C48.526 37.9527 48.5159 37.6672 48.4294 37.4005C48.3429 37.1339 48.1834 36.8968 47.969 36.7162C47.7546 36.5357 47.4939 36.4188 47.2164 36.3788Z" fill="#FFCE09"/>
<path d="M18.2895 29.8L12.4985 26.754L6.70754 29.8C6.45984 29.9301 6.18068 29.9883 5.90162 29.9681C5.62255 29.9479 5.35471 29.85 5.12835 29.6855C4.902 29.5211 4.72615 29.2966 4.62069 29.0374C4.51522 28.7782 4.48434 28.4948 4.53154 28.219L5.63754 21.77L0.952542 17.2C0.752281 17.0046 0.610648 16.7571 0.543648 16.4855C0.476648 16.2139 0.486951 15.9289 0.573392 15.6628C0.659833 15.3967 0.818967 15.1601 1.03281 14.9797C1.24666 14.7993 1.5067 14.6823 1.78354 14.642L8.25754 13.7L11.1575 7.83298C11.2815 7.58231 11.4731 7.3713 11.7107 7.22376C11.9483 7.07623 12.2224 6.99805 12.502 6.99805C12.7817 6.99805 13.0558 7.07623 13.2934 7.22376C13.5309 7.3713 13.7225 7.58231 13.8465 7.83298L16.7465 13.7L23.2205 14.641C23.4974 14.6813 23.7574 14.7983 23.9713 14.9787C24.1851 15.1591 24.3443 15.3957 24.4307 15.6618C24.5171 15.9279 24.5274 16.2129 24.4604 16.4845C24.3934 16.7561 24.2518 17.0036 24.0515 17.199L19.3665 21.766L20.4725 28.215C20.5216 28.492 20.4917 28.7772 20.3864 29.0381C20.2811 29.299 20.1045 29.525 19.8768 29.6903C19.6492 29.8556 19.3796 29.9535 19.0989 29.9729C18.8182 29.9923 18.5378 29.9324 18.2895 29.8ZM13.1985 23.732L16.9985 25.732L16.2705 21.5C16.2296 21.2603 16.2476 21.0143 16.3228 20.7832C16.3981 20.552 16.5284 20.3426 16.7025 20.173L19.7755 17.173L15.5285 16.556C15.288 16.521 15.0596 16.4281 14.8629 16.2852C14.6662 16.1424 14.5072 15.9539 14.3995 15.736L12.4995 11.886L10.5995 15.736C10.4919 15.9539 10.3329 16.1424 10.1362 16.2852C9.93952 16.4281 9.71109 16.521 9.47054 16.556L5.22354 17.173L8.29654 20.173C8.47052 20.3427 8.60064 20.5521 8.67572 20.7833C8.7508 21.0145 8.76859 21.2604 8.72754 21.5L7.99854 25.729L11.7985 23.729C12.0146 23.6156 12.255 23.5566 12.4989 23.5571C12.7429 23.5576 12.983 23.6177 13.1985 23.732Z" fill="#FFCE09"/>
<path d="M57.2905 29.8L51.4995 26.754L45.7075 29.8C45.4598 29.9301 45.1807 29.9883 44.9016 29.9681C44.6226 29.9478 44.3547 29.85 44.1284 29.6855C43.902 29.521 43.7261 29.2965 43.6207 29.0374C43.5152 28.7782 43.4843 28.4947 43.5315 28.219L44.6375 21.77L39.9525 17.2C39.7523 17.0046 39.6106 16.7571 39.5436 16.4855C39.4766 16.2138 39.487 15.9289 39.5734 15.6628C39.6598 15.3967 39.819 15.1601 40.0328 14.9797C40.2467 14.7993 40.5067 14.6823 40.7835 14.642L47.2575 13.701L50.1575 7.83395C50.2815 7.58328 50.4731 7.37227 50.7107 7.22474C50.9483 7.0772 51.2224 6.99902 51.502 6.99902C51.7817 6.99902 52.0558 7.0772 52.2934 7.22474C52.5309 7.37227 52.7225 7.58328 52.8465 7.83395L55.7465 13.701L62.2205 14.642C62.4974 14.6823 62.7574 14.7993 62.9713 14.9797C63.1851 15.1601 63.3442 15.3967 63.4307 15.6628C63.5171 15.9289 63.5274 16.2138 63.4604 16.4855C63.3934 16.7571 63.2518 17.0046 63.0515 17.2L58.3665 21.767L59.4725 28.216C59.5212 28.4928 59.4911 28.7777 59.3857 29.0383C59.2803 29.2988 59.1039 29.5245 58.8764 29.6897C58.6489 29.8548 58.3797 29.9527 58.0993 29.9722C57.8189 29.9917 57.5387 29.932 57.2905 29.8ZM52.1995 23.732L55.9995 25.732L55.2705 21.5C55.2296 21.2603 55.2476 21.0143 55.3228 20.7832C55.3981 20.552 55.5284 20.3426 55.7025 20.173L58.7755 17.173L54.5285 16.556C54.288 16.521 54.0596 16.4281 53.8629 16.2852C53.6662 16.1424 53.5072 15.9539 53.3995 15.736L51.4995 11.886L49.5995 15.736C49.4919 15.9539 49.3329 16.1424 49.1362 16.2852C48.9395 16.4281 48.7111 16.521 48.4705 16.556L44.2235 17.173L47.2965 20.173C47.4707 20.3426 47.601 20.552 47.6763 20.7832C47.7515 21.0143 47.7695 21.2603 47.7285 21.5L46.9995 25.729L50.7995 23.729C51.0155 23.6156 51.2559 23.5566 51.4999 23.5571C51.7439 23.5576 51.984 23.6176 52.1995 23.732Z" fill="#FFCE09"/>
</svg>
