<svg width="24" height="25" viewBox="0 0 24 25" fill="none" xmlns="http://www.w3.org/2000/svg">
<path d="M2 13.6916V11.9266C2 10.8837 2.85 10.0213 3.9 10.0213C5.71 10.0213 6.45 8.73772 5.54 7.16332C5.02 6.2608 5.33 5.08752 6.24 4.56607L7.97 3.57329C8.76 3.10198 9.78 3.38276 10.25 4.17497L10.36 4.36551C11.26 5.9399 12.74 5.9399 13.65 4.36551L13.76 4.17497C14.23 3.38276 15.25 3.10198 16.04 3.57329L17.77 4.56607C18.68 5.08752 18.99 6.2608 18.47 7.16332C17.56 8.73772 18.3 10.0213 20.11 10.0213C21.15 10.0213 22.01 10.8737 22.01 11.9266V13.6916C22.01 14.7345 21.16 15.5969 20.11 15.5969C18.3 15.5969 17.56 16.8805 18.47 18.4549C18.99 19.3674 18.68 20.5307 17.77 21.0521L16.04 22.0449C15.25 22.5162 14.23 22.2354 13.76 21.4432L13.65 21.2527C12.75 19.6783 11.27 19.6783 10.36 21.2527L10.25 21.4432C9.78 22.2354 8.76 22.5162 7.97 22.0449L6.24 21.0521C5.33 20.5307 5.02 19.3574 5.54 18.4549C6.45 16.8805 5.71 15.5969 3.9 15.5969C2.85 15.5969 2 14.7345 2 13.6916Z" fill="black" stroke="black" stroke-width="1.5" stroke-miterlimit="10" stroke-linecap="round" stroke-linejoin="round"/>
<path d="M12 16.0168C13.6569 16.0168 15 14.6699 15 13.0084C15 11.3469 13.6569 10 12 10C10.3431 10 9 11.3469 9 13.0084C9 14.6699 10.3431 16.0168 12 16.0168Z" fill="white" stroke="black" stroke-width="1.5" stroke-miterlimit="10" stroke-linecap="round" stroke-linejoin="round"/>
</svg>
