<svg width="414" height="247" viewBox="0 0 414 247" fill="none" xmlns="http://www.w3.org/2000/svg">
<path d="M399.771 190.971L399.77 190.971C386.196 198.425 374.337 205.537 363.532 212.017C357.397 215.697 351.601 219.173 346.024 222.392C330.598 231.296 316.789 238.267 301.865 242.319C272.058 250.412 237.634 246.902 176.842 223.362C134.08 206.789 90.7574 206.206 55.9043 205.737C54.1261 205.713 52.3699 205.69 50.637 205.664C32.7527 205.402 17.4075 204.946 5.7858 202.032C-5.80224 199.127 -13.5101 193.827 -16.4057 183.979C-23.5285 159.258 -8.8681 141.621 8.06371 125.084C10.2173 122.98 12.4087 120.894 14.5932 118.814C20.951 112.76 27.251 106.762 32.3944 100.562C39.316 92.2185 44.2534 83.3885 44.468 73.3636L44.468 73.3634C44.6775 63.484 44.9391 52.4562 46.5656 42.0177C48.1929 31.5736 51.1756 21.801 56.7714 14.3967C62.3428 7.02476 70.5442 1.94655 82.754 0.935204C95.001 -0.0792331 111.305 2.99809 133.022 12.0376L133.022 12.0377C145.97 17.425 160.612 19.7223 175.797 20.7381C186.69 21.4668 197.904 21.5375 208.993 21.6074C213.351 21.6348 217.69 21.6622 221.983 21.7293C237.222 21.9677 251.895 22.707 264.939 25.7047C277.973 28.7003 289.333 33.9403 297.99 43.1451C301.932 47.3636 305.604 51.4323 309.095 55.3009C313.101 59.7411 316.87 63.9178 320.537 67.7549C327.431 74.9677 334.082 81.1111 341.572 85.8569C356.595 95.3769 374.862 99.193 404.977 95.076L404.977 95.076C424.371 92.4152 439.533 93.9515 449.913 98.4724C460.26 102.979 465.823 110.424 466.226 119.691C466.633 129.025 461.817 140.396 450.941 152.697C440.078 164.984 423.234 178.121 399.771 190.971Z" fill="#FF9E81" stroke="black" stroke-width="1.5"/>
</svg>
