<svg width="414" height="279" viewBox="0 0 414 279" fill="none" xmlns="http://www.w3.org/2000/svg">
<path d="M103.697 106.944L103.698 106.944C125.032 97.4237 135.62 83.8237 144.117 69.8708C145.938 66.8789 147.66 63.8803 149.367 60.9071C155.637 49.9866 161.711 39.4073 171.837 30.7491C184.904 19.7431 204.455 11.7345 227.418 6.85436C250.37 1.97658 276.667 0.237364 303.164 1.72277L303.167 1.72292C316.274 2.40265 325.015 6.88372 331.026 13.5602C337.062 20.263 340.412 29.2511 342.576 39.06C344.179 46.3287 345.118 53.9792 346.032 61.4298C346.353 64.0434 346.671 66.6323 347.013 69.1715C348.324 78.8953 349.998 87.9129 353.651 94.5171C357.329 101.166 362.942 105.305 369.412 108.32C374.716 110.792 380.649 112.53 386.593 114.272C387.87 114.646 389.147 115.02 390.418 115.401C404.874 119.74 418.747 125.08 424.789 141.974C427.817 150.716 433.211 159.33 439.248 167.464C443.77 173.557 448.679 179.414 453.25 184.867C454.78 186.693 456.273 188.474 457.7 190.203C463.423 197.136 468.058 203.195 470.059 208.113C471.056 210.564 471.355 212.629 470.9 214.332C470.454 216.001 469.246 217.461 466.911 218.641C464.498 219.835 460.988 220.718 456.533 221.34C452.088 221.96 446.757 222.314 440.737 222.482C428.696 222.818 413.964 222.407 398.162 221.909C396.809 221.866 395.447 221.823 394.079 221.78C363.538 220.809 329.609 219.731 303.927 223.22C277.063 226.869 256.629 235.121 238.259 244.677C230.382 248.774 222.88 253.113 215.424 257.426C214.193 258.139 212.963 258.85 211.732 259.56C203.046 264.57 194.342 269.487 185.06 273.915C175.927 278.216 165.411 278.888 154.069 277.265C142.725 275.643 130.609 271.733 118.318 266.929C109.568 263.509 100.758 259.649 92.0883 255.849C88.5756 254.31 85.0858 252.781 81.6322 251.295C69.6749 246.15 58.1577 241.529 47.7292 238.88C31.2552 234.656 19.2108 235.704 9.19072 236.576C6.63141 236.799 4.20418 237.01 1.86893 237.119C-3.86907 237.386 -9.04577 237.043 -14.3521 234.813C-19.6626 232.582 -25.1739 228.43 -31.5105 220.959C-44.1099 205.988 -56.5008 190.97 -62.0962 177.64C-64.8888 170.987 -65.9465 164.849 -64.5701 159.395C-63.2003 153.967 -59.3849 149.082 -52.1441 144.99C-44.7746 140.881 -34.0048 137.603 -21.2732 134.712C-8.55392 131.823 6.05091 129.336 21.0583 126.782L21.2574 126.748C51.1651 121.659 82.689 116.295 103.697 106.944Z" fill="#E3A8FF" stroke="black" stroke-width="1.5"/>
</svg>
