<svg width="414" height="241" viewBox="0 0 414 241" fill="none" xmlns="http://www.w3.org/2000/svg">
<path d="M52.4601 95.9424L52.4616 95.9396C58.3991 84.9693 61.2169 72.5023 63.3778 60.3362C63.8628 57.6055 64.3145 54.8928 64.7602 52.2156C66.3067 42.9266 67.7819 34.0658 70.3325 26.3687C73.6093 16.4797 78.6232 8.64597 87.7207 4.41644C96.8352 0.178977 110.188 -0.506188 130.324 4.23811L130.325 4.23828C149.015 8.6247 171.59 16.0676 193.183 23.2785C194.428 23.6941 195.669 24.109 196.907 24.5225C217.106 31.2734 236.199 37.6542 250.021 40.8726C265.029 44.378 281.907 43.9111 299.302 41.7703C313.002 40.0843 327.076 37.3519 340.852 34.6775C344.568 33.956 348.262 33.2388 351.922 32.5474C369.174 29.2882 385.646 26.6051 400.084 26.7128C414.529 26.8205 426.788 29.7216 435.741 37.4842C444.654 45.2494 447.723 53.2243 447.191 61.4048C446.654 69.6541 442.45 78.1842 436.616 86.9576C432.629 92.9537 427.921 99.0062 423.162 105.126C420.957 107.961 418.741 110.81 416.58 113.675C409.778 122.693 403.54 131.844 400.099 141.031C395.411 153.171 396.224 165.152 397.909 176.996C398.243 179.343 398.61 181.68 398.976 184.012C400.465 193.49 401.938 202.869 401.091 212.325C400.306 220.179 393.662 228.346 383.325 233.779C373.016 239.197 359.155 241.824 344.16 238.709L344.16 238.709C254.735 220.177 172.389 225.513 105.521 229.846C102.458 230.044 99.428 230.241 96.4309 230.433C62.1918 232.625 32.3418 234.227 7.99587 231.711C-16.3553 229.195 -35.0084 222.577 -47.0385 208.499C-50.4827 204.449 -51.7607 200.062 -51.335 195.394C-50.9066 190.698 -48.7493 185.698 -45.2695 180.501C-38.3084 170.105 -26.1933 159.12 -12.7368 148.451C-3.61413 141.219 6.08719 134.161 15.1782 127.547C19.4936 124.407 23.6715 121.367 27.5846 118.457C33.6548 113.941 39.0875 109.737 43.386 105.962C47.6693 102.201 50.8848 98.8179 52.4601 95.9424Z" fill="#B8FFF3" stroke="black" stroke-width="1.5"/>
</svg>
