<svg width="191" height="172" viewBox="0 0 191 172" fill="none" xmlns="http://www.w3.org/2000/svg">
<g opacity="0.2">
<path d="M121.56 235.07C188.144 235.07 242.121 182.672 242.121 118.035C242.121 53.3984 188.144 1 121.56 1C54.9767 1 1 53.3984 1 118.035C1 182.672 54.9767 235.07 121.56 235.07Z" stroke="#3B7259" stroke-miterlimit="10"/>
<path d="M121.563 223.16C181.376 223.16 229.864 176.089 229.864 118.025C229.864 59.961 181.376 12.8906 121.563 12.8906C61.7498 12.8906 13.2617 59.961 13.2617 118.025C13.2617 176.089 61.7498 223.16 121.563 223.16Z" stroke="#3B7259" stroke-miterlimit="10"/>
<path d="M121.554 211.273C174.597 211.273 217.596 169.53 217.596 118.039C217.596 66.547 174.597 24.8047 121.554 24.8047C68.5113 24.8047 25.5117 66.547 25.5117 118.039C25.5117 169.53 68.5113 211.273 121.554 211.273Z" stroke="#3B7259" stroke-miterlimit="10"/>
<path d="M121.561 199.37C167.833 199.37 205.344 162.956 205.344 118.037C205.344 73.1173 167.833 36.7031 121.561 36.7031C75.2883 36.7031 37.7773 73.1173 37.7773 118.037C37.7773 162.956 75.2883 199.37 121.561 199.37Z" stroke="#3B7259" stroke-miterlimit="10"/>
<path d="M121.557 187.455C161.058 187.455 193.079 156.37 193.079 118.025C193.079 79.679 161.058 48.5938 121.557 48.5938C82.0567 48.5938 50.0352 79.679 50.0352 118.025C50.0352 156.37 82.0567 187.455 121.557 187.455Z" stroke="#3B7259" stroke-miterlimit="10"/>
<path d="M121.564 175.56C154.294 175.56 180.827 149.803 180.827 118.03C180.827 86.2572 154.294 60.5 121.564 60.5C88.8338 60.5 62.3008 86.2572 62.3008 118.03C62.3008 149.803 88.8338 175.56 121.564 175.56Z" stroke="#3B7259" stroke-miterlimit="10"/>
<path d="M121.57 163.666C147.53 163.666 168.574 143.236 168.574 118.036C168.574 92.8353 147.53 72.4062 121.57 72.4062C95.6108 72.4062 74.5664 92.8353 74.5664 118.036C74.5664 143.236 95.6108 163.666 121.57 163.666Z" stroke="#3B7259" stroke-miterlimit="10"/>
<path d="M121.562 151.763C140.751 151.763 156.306 136.662 156.306 118.034C156.306 99.4057 140.751 84.3047 121.562 84.3047C102.372 84.3047 86.8165 99.4057 86.8165 118.034C86.8165 136.662 102.372 151.763 121.562 151.763Z" stroke="#3B7259" stroke-miterlimit="10"/>
<path d="M121.564 139.876C133.983 139.876 144.05 130.103 144.05 118.047C144.05 105.992 133.983 96.2188 121.564 96.2188C109.145 96.2188 99.0781 105.992 99.0781 118.047C99.0781 130.103 109.145 139.876 121.564 139.876Z" stroke="#3B7259" stroke-miterlimit="10"/>
<path d="M121.557 127.953C127.204 127.953 131.782 123.509 131.782 118.027C131.782 112.546 127.204 108.102 121.557 108.102C115.91 108.102 111.332 112.546 111.332 118.027C111.332 123.509 115.91 127.953 121.557 127.953Z" stroke="#3B7259" stroke-miterlimit="10"/>
</g>
</svg>
