<svg width="414" height="229" viewBox="0 0 414 229" fill="none" xmlns="http://www.w3.org/2000/svg">
<path d="M133.615 173.525L133.614 173.525C114.49 169.934 91.9692 167.528 69.7724 165.424C64.8156 164.954 59.8754 164.499 54.9924 164.05C37.9933 162.485 21.6867 160.984 7.78278 159.131C-1.1645 157.94 -9.0955 156.605 -15.56 155.02C-22.0458 153.429 -26.9728 151.605 -29.9745 149.476C-31.4689 148.415 -32.4321 147.317 -32.9028 146.187C-33.3643 145.079 -33.3829 143.87 -32.8548 142.501C-31.7686 139.686 -28.3955 136.263 -21.9999 132.15L-21.9991 132.149C-10.2036 124.542 8.04286 115.552 25.686 106.953C26.7066 106.455 27.7253 105.959 28.7407 105.465C45.2365 97.4304 60.8474 89.8271 69.5513 84.1802C74.327 81.089 77.3812 77.6608 79.1573 73.9812C80.933 70.3021 81.4036 66.4285 81.1033 62.4906C80.8038 58.561 79.7353 54.5493 78.4177 50.5759C77.6649 48.3054 76.8129 45.999 75.9721 43.7232C75.3548 42.052 74.7435 40.3973 74.1821 38.7856C71.4794 31.0261 69.815 23.9337 72.7011 18.0059C75.5741 12.1052 83.1178 7.06613 99.6836 3.89295C132.587 -2.37657 163.046 1.58626 193.448 8.31032C203.816 10.6034 214.192 13.2221 224.658 15.8636C244.834 20.9556 265.344 26.132 286.775 29.2227C308.21 32.3788 330.431 33.183 352.747 33.6018C357.14 33.6843 361.536 33.7518 365.93 33.8192C383.876 34.0948 401.797 34.37 419.38 35.66C434.344 36.7947 448.348 40.5301 456.378 45.4663C460.417 47.9493 462.766 50.6248 463.182 53.2682C463.586 55.8314 462.209 58.7185 457.885 61.7671L457.885 61.7675C430.662 80.994 415.947 100.05 407.391 118.083C399.593 134.521 396.931 150.079 394.548 164.006C394.319 165.342 394.093 166.664 393.865 167.97C391.256 182.923 388.429 195.742 379.129 205.828C369.837 215.905 353.963 223.372 324.959 227.249C290.879 231.777 252.863 220.257 218.409 206.61C206.729 201.984 195.485 197.125 184.951 192.573C179.952 190.413 175.113 188.321 170.463 186.357C156.045 180.266 143.426 175.385 133.615 173.525Z" fill="#DAFF6F" stroke="black" stroke-width="1.5"/>
</svg>
