<svg width="199" height="176" viewBox="0 0 199 176" fill="none" xmlns="http://www.w3.org/2000/svg">
<rect x="0.70168" y="-0.100561" width="199.752" height="200.042" transform="matrix(0.601613 -0.798787 0.801746 0.597665 1.3172 125.989)" stroke="#FBDB79"/>
<rect x="0.70168" y="-0.100561" width="180.046" height="180.308" transform="matrix(0.601613 -0.798787 0.801746 0.597665 15.1531 124.012)" stroke="#FBDB79"/>
<rect x="0.70168" y="-0.100561" width="160.34" height="160.573" transform="matrix(0.601613 -0.798787 0.801746 0.597665 28.9969 122.043)" stroke="#FBDB79"/>
<rect x="0.70168" y="-0.100561" width="140.635" height="140.839" transform="matrix(0.601613 -0.798787 0.801746 0.597665 42.8328 120.067)" stroke="#FBDB79"/>
<rect x="0.70168" y="-0.100561" width="120.929" height="121.105" transform="matrix(0.601613 -0.798787 0.801746 0.597665 56.6688 118.09)" stroke="#FBDB79"/>
<rect x="0.70168" y="-0.100561" width="101.223" height="101.371" transform="matrix(0.601613 -0.798787 0.801746 0.597665 70.5086 116.122)" stroke="#FBDB79"/>
<rect x="0.70168" y="-0.100561" width="81.5176" height="81.6368" transform="matrix(0.601613 -0.798787 0.801746 0.597665 84.3484 114.153)" stroke="#FBDB79"/>
<rect x="0.70168" y="-0.100561" width="81.5176" height="81.6368" transform="matrix(0.601613 -0.798787 0.801746 0.597665 84.3484 114.153)" stroke="#FBDB79"/>
<rect x="0.70168" y="-0.100561" width="61.8119" height="61.9026" transform="matrix(0.601613 -0.798787 0.801746 0.597665 98.1883 112.176)" stroke="#FBDB79"/>
<rect x="0.70168" y="-0.100561" width="42.1062" height="42.1685" transform="matrix(0.601613 -0.798787 0.801746 0.597665 112.024 110.208)" stroke="#FBDB79"/>
<rect x="0.70168" y="-0.100561" width="22.4005" height="22.4343" transform="matrix(0.601613 -0.798787 0.801746 0.597665 125.86 108.231)" stroke="#FBDB79"/>
<rect x="0.70168" y="-0.100561" width="5.15803" height="5.16693" transform="matrix(0.601613 -0.798787 0.801746 0.597665 137.973 106.504)" stroke="#FBDB79"/>
</svg>
