<svg width="82" height="82" viewBox="0 0 82 82" fill="none" xmlns="http://www.w3.org/2000/svg">
<path d="M15.375 16.1243L23.8133 7.68595L20.5 4.37264C19.8261 3.6987 18.6114 3.6987 17.9375 4.37264L12.0617 10.2485C11.7247 10.5854 11.5312 11.0531 11.5312 11.5297C11.5312 12.0063 11.7247 12.474 12.0617 12.811L15.375 16.1243Z" fill="black"/>
<path d="M12.8125 23.061C12.8125 23.5376 13.006 24.0052 13.3429 24.3422L15.375 26.3743L34.0633 7.68595L32.0312 5.65389C31.3573 4.97995 30.1427 4.97995 29.4688 5.65389L13.3429 21.7797C13.006 22.1167 12.8125 22.5843 12.8125 23.061Z" fill="black"/>
<path d="M14.0938 32.0297C14.0938 32.5063 14.2872 32.974 14.6242 33.311L17.0919 35.7786C18.7947 35.2123 20.5833 34.842 22.436 34.6896L44.3133 12.811C44.6503 12.474 44.8438 12.0063 44.8438 11.5297C44.8438 11.0531 44.6503 10.5854 44.3133 10.2485L41 6.93514C40.3261 6.2612 39.1114 6.2612 38.4375 6.93514L14.6242 30.7485C14.2872 31.0854 14.0938 31.5531 14.0938 32.0297V32.0297Z" fill="black"/>
<path d="M59.6883 43.5633L38.4375 22.3125L29.9992 30.7508L40.2223 40.9739C40.4977 41.2353 40.7642 41.5031 41.0269 41.7785L51.25 52.0016L59.6883 43.5633Z" fill="black"/>
<path d="M76.875 51.2508C76.875 50.7742 76.6815 50.3065 76.3445 49.9696L74.3125 47.9375L55.6242 66.6258L57.6562 68.6579C58.3302 69.3318 59.5448 69.3318 60.2187 68.6579L76.3445 52.5321C76.6815 52.1951 76.875 51.7274 76.875 51.2508Z" fill="black"/>
<path d="M75.5938 42.2797C75.5938 41.8031 75.4003 41.3354 75.0633 40.9985L71.75 37.6851C71.0761 37.0112 69.8614 37.0112 69.1875 37.6851L47.3102 59.5638C47.1577 61.4165 46.7874 63.2038 46.2211 64.9079L48.6875 67.3743C49.3614 68.0482 50.5761 68.0482 51.25 67.3743L75.0633 43.561C75.4003 43.224 75.5938 42.7563 75.5938 42.2797V42.2797Z" fill="black"/>
<path d="M77.6258 61.5008L74.3125 58.1875L65.8742 66.6258L69.1875 69.9391C69.8614 70.6131 71.076 70.6131 71.75 69.9391L77.6258 64.0633C77.9628 63.7263 78.1562 63.2587 78.1562 62.7821C78.1562 62.3054 77.9628 61.8378 77.6258 61.5008Z" fill="black"/>
<path d="M38.3991 42.7732C34.7257 39.3023 29.7852 37.1562 24.3438 37.1562C13.0406 37.1562 3.84375 46.3531 3.84375 57.6562C3.84375 68.9594 13.0406 78.1562 24.3438 78.1562C35.6469 78.1562 44.8438 68.9594 44.8438 57.6562C44.8438 52.2148 42.6977 47.2743 39.2267 43.6009L38.3991 42.7732ZM24.3438 74.3125C15.1444 74.3125 7.6875 66.8556 7.6875 57.6562C7.6875 48.4569 15.1444 41 24.3438 41C33.5431 41 41 48.4569 41 57.6562C41 66.8556 33.5431 74.3125 24.3438 74.3125Z" fill="#FF5D23"/>
<path d="M24.3438 66.625C29.2971 66.625 33.3125 62.6096 33.3125 57.6562C33.3125 52.7029 29.2971 48.6875 24.3438 48.6875C19.3904 48.6875 15.375 52.7029 15.375 57.6562C15.375 62.6096 19.3904 66.625 24.3438 66.625Z" fill="#FF5D23"/>
</svg>
