<?xml version="1.0" encoding="iso-8859-1"?>
<!-- Generator: Adobe Illustrator 19.0.0, SVG Export Plug-In . SVG Version: 6.00 Build 0)  -->
<svg version="1.1" id="Layer_1" xmlns="http://www.w3.org/2000/svg" xmlns:xlink="http://www.w3.org/1999/xlink" x="0px" y="0px"
	 viewBox="0 0 512.231 512.231" style="enable-background:new 0 0 512.231 512.231;" xml:space="preserve">
<g>
	<g>
		<g>
			<path d="M510.89,210.728c-3.354-10.914-12.433-17.877-24.132-18.628c-16.623-1.391-115.61-10.197-139.546-12.331l-63.3-157.431
				c-5.717-14.234-16.828-22.75-28.843-22.17c-11.639,0.538-21.419,9.472-25.353,22.775
				c-6.144,16.649-47.454,131.038-56.764,156.817l-148.48,12.578c-11.537,0.981-20.25,7.799-23.305,18.236
				c-3.405,11.622,0.836,25.216,10.095,32.316c10.232,7.842,93.918,69.12,115.328,84.796L83.566,475.184
				c-6.46,19.046-0.879,28.271,4.941,32.648c10.197,7.663,26.658,3.917,37.658-3.738c12.006-8.354,106.641-75.87,110.66-78.737
				c3.84-2.739,4.736-8.073,1.997-11.904c-2.731-3.84-8.073-4.727-11.904-1.988c-0.99,0.7-98.586,70.323-110.507,78.626
				c-6.955,4.838-15.369,5.811-17.638,4.105c-1.169-0.879-1.869-5.197,1.067-13.875l44.809-153.6
				c1.007-3.448-0.256-7.151-3.157-9.276c-1.084-0.794-108.501-79.411-119.842-88.098c-3.627-2.782-5.513-9.182-4.104-13.978
				c1.075-3.669,3.814-5.641,8.371-6.025l153.933-13.039c3.32-0.282,6.17-2.466,7.305-5.606
				c0.512-1.425,51.703-143.215,58.752-162.372c1.98-6.665,5.794-10.923,9.958-11.11c4.506-0.265,9.327,4.292,12.211,11.477
				l65.254,162.295c1.203,2.978,3.968,5.035,7.159,5.316c0,0,125.901,11.213,145.007,12.809c4.77,0.307,7.825,2.534,9.079,6.622
				c1.69,5.487-0.393,12.22-4.821,15.659l-111.07,86.195c-2.662,2.065-3.857,5.513-3.055,8.781
				c0.299,1.212,29.764,120.772,38.306,153.259c1.911,7.253,1.698,12.937-0.529,14.49c-2.867,2.031-11.017,0.811-18.099-4.122
				c-16.802-11.699-146.031-105.933-147.337-106.889c-3.814-2.773-9.148-1.929-11.921,1.869c-2.782,3.806-1.946,9.148,1.86,11.93
				c5.333,3.883,130.688,95.292,147.644,107.093c6.622,4.625,15.556,8.09,23.987,8.09c4.898,0,9.626-1.178,13.636-3.977
				c6.127-4.275,12.365-13.44,7.27-32.819c-7.475-28.399-31.053-123.861-36.915-147.618l106.692-82.799
				C510.284,237.062,514.661,223.024,510.89,210.728z"/>
			<path d="M324.274,281.742c0-3.029-1.613-5.845-4.233-7.373l-102.4-59.733c-2.645-1.536-5.905-1.544-8.55-0.026
				c-2.654,1.519-4.284,4.343-4.284,7.398v119.467c0,3.055,1.63,5.879,4.284,7.398c1.314,0.759,2.782,1.135,4.25,1.135
				c1.485,0,2.97-0.384,4.301-1.161l102.4-59.733C322.661,287.588,324.274,284.772,324.274,281.742z M221.874,326.619v-89.754
				l76.928,44.877L221.874,326.619z"/>
		</g>
	</g>
</g>
<g>
</g>
<g>
</g>
<g>
</g>
<g>
</g>
<g>
</g>
<g>
</g>
<g>
</g>
<g>
</g>
<g>
</g>
<g>
</g>
<g>
</g>
<g>
</g>
<g>
</g>
<g>
</g>
<g>
</g>
</svg>
