<svg width="40" height="40" viewBox="0 0 40 40" fill="none" xmlns="http://www.w3.org/2000/svg">
<g clip-path="url(#clip0_4125_605)">
<path d="M20 36.0938C26.4721 36.0938 31.7188 30.8471 31.7188 24.375C31.7188 17.9029 26.4721 12.6562 20 12.6562C13.5279 12.6562 8.28125 17.9029 8.28125 24.375C8.28125 30.8471 13.5279 36.0938 20 36.0938Z" fill="#D4F4D7"/>
<path d="M30.5782 12.8864L32.1578 10.7513L32.854 11.2663C33.2015 11.5235 33.6907 11.449 33.9466 11.103C34.2033 10.7561 34.1302 10.2669 33.7832 10.0102C32.383 8.97422 33.3097 9.65977 28.623 6.19266C28.2762 5.93609 27.787 6.00914 27.5304 6.35602C27.2738 6.70289 27.347 7.19211 27.6938 7.44875L28.3898 7.96367L26.6927 10.2579C24.885 9.3975 22.8875 8.87383 20.7812 8.76953V6.25H22.7344C24.0267 6.25 25.0781 5.19859 25.0781 3.90625V2.34375C25.0781 1.05141 24.0267 0 22.7344 0H17.2656C15.9733 0 14.9219 1.05141 14.9219 2.34375V3.90625C14.9219 5.19859 15.9733 6.25 17.2656 6.25H19.2188V8.76953C17.1125 8.87383 15.115 9.3975 13.3073 10.2579L11.6101 7.96367L12.3062 7.44875C12.653 7.19211 12.7262 6.70289 12.4695 6.35602C12.213 6.00922 11.7238 5.93609 11.3768 6.19266L10.059 7.16758C10.0282 7.18953 8.14023 8.58703 7.5407 9.03055C7.43086 9.11453 7.98453 8.70211 6.21672 10.0102C5.86992 10.2669 5.79672 10.7561 6.05336 11.103C6.30953 11.4492 6.79867 11.5234 7.14609 11.2663L7.84219 10.7513L9.4218 12.8863C6.32102 15.7437 4.375 19.8361 4.375 24.375C4.375 32.9906 11.3844 40 20 40C28.6156 40 35.625 32.9906 35.625 24.375C35.625 19.8361 33.679 15.7437 30.5782 12.8864V12.8864ZM16.4844 3.90625V2.34375C16.4844 1.91297 16.8348 1.5625 17.2656 1.5625H22.7344C23.1652 1.5625 23.5156 1.91297 23.5156 2.34375V3.90625C23.5156 4.33703 23.1652 4.6875 22.7344 4.6875H17.2656C16.8348 4.6875 16.4844 4.33703 16.4844 3.90625ZM29.646 8.89305L30.9018 9.82211L29.3763 11.884C28.9605 11.571 28.5287 11.2781 28.0821 11.0071L29.646 8.89305ZM9.0982 9.82211L10.354 8.89305L11.918 11.0071C11.4714 11.278 11.0396 11.571 10.6237 11.884L9.0982 9.82211ZM20 38.4375C12.2459 38.4375 5.9375 32.1291 5.9375 24.375C5.9375 16.6209 12.2459 10.3125 20 10.3125C27.7541 10.3125 34.0625 16.6209 34.0625 24.375C34.0625 32.1291 27.7541 38.4375 20 38.4375Z" fill="#63C054"/>
<path d="M20.7812 22.0007V19.6875C20.7812 19.256 20.4315 18.9062 20 18.9062C19.5685 18.9062 19.2188 19.256 19.2188 19.6875V22.0007C18.2218 22.3296 17.5 23.2693 17.5 24.375C17.5 25.7535 18.6215 26.875 20 26.875C21.3785 26.875 22.5 25.7535 22.5 24.375C22.5 23.2693 21.7782 22.3295 20.7812 22.0007ZM20 25.3125C19.483 25.3125 19.0625 24.892 19.0625 24.375C19.0625 23.858 19.483 23.4375 20 23.4375C20.517 23.4375 20.9375 23.858 20.9375 24.375C20.9375 24.892 20.517 25.3125 20 25.3125Z" fill="#63C054"/>
<path d="M20 17.3438C20.4315 17.3438 20.7812 16.994 20.7812 16.5625V15.7812C20.7812 15.3498 20.4315 15 20 15C19.5685 15 19.2188 15.3498 19.2188 15.7812V16.5625C19.2188 16.994 19.5685 17.3438 20 17.3438Z" fill="#63C054"/>
<path d="M14.4744 17.7463C14.1693 17.4413 13.6746 17.4413 13.3694 17.7463C13.0644 18.0514 13.0644 18.5461 13.3694 18.8513L13.9219 19.4037C14.2269 19.7087 14.7216 19.7088 15.0268 19.4037C15.3319 19.0986 15.3319 18.6039 15.0268 18.2988L14.4744 17.7463Z" fill="#63C054"/>
<path d="M12.1875 23.5938H11.4062C10.9748 23.5938 10.625 23.9435 10.625 24.375C10.625 24.8065 10.9748 25.1562 11.4062 25.1562H12.1875C12.619 25.1562 12.9688 24.8065 12.9688 24.375C12.9688 23.9435 12.619 23.5938 12.1875 23.5938Z" fill="#63C054"/>
<path d="M13.9219 29.347L13.3694 29.8995C13.0644 30.2045 13.0644 30.6992 13.3694 31.0044C13.6746 31.3095 14.1692 31.3095 14.4744 31.0044L15.0268 30.452C15.3319 30.1469 15.3319 29.6522 15.0268 29.347C14.7216 29.0419 14.2269 29.0419 13.9219 29.347Z" fill="#63C054"/>
<path d="M20 31.4062C19.5685 31.4062 19.2188 31.756 19.2188 32.1875V32.9688C19.2188 33.4002 19.5685 33.75 20 33.75C20.4315 33.75 20.7812 33.4002 20.7812 32.9688V32.1875C20.7812 31.756 20.4315 31.4062 20 31.4062Z" fill="#63C054"/>
<path d="M26.0759 29.347C25.7708 29.0419 25.2761 29.0419 24.971 29.347C24.6659 29.652 24.6659 30.1467 24.971 30.4519L25.5234 31.0043C25.8286 31.3094 26.3232 31.3094 26.6283 31.0043C26.9334 30.6992 26.9334 30.2045 26.6283 29.8994L26.0759 29.347Z" fill="#63C054"/>
<path d="M28.5938 23.5938H27.8125C27.381 23.5938 27.0312 23.9435 27.0312 24.375C27.0312 24.8065 27.381 25.1562 27.8125 25.1562H28.5938C29.0252 25.1562 29.375 24.8065 29.375 24.375C29.375 23.9435 29.0252 23.5938 28.5938 23.5938Z" fill="#63C054"/>
<path d="M25.5234 17.7463L24.971 18.2988C24.6659 18.6038 24.6659 19.0985 24.971 19.4037C25.276 19.7087 25.7708 19.7088 26.0759 19.4037L26.6283 18.8513C26.9334 18.5462 26.9334 18.0515 26.6283 17.7463C26.3233 17.4413 25.8286 17.4413 25.5234 17.7463V17.7463Z" fill="#63C054"/>
</g>
<defs>
<clipPath id="clip0_4125_605">
<rect width="40" height="40" fill="white"/>
</clipPath>
</defs>
</svg>
