<svg width="24" height="24" viewBox="0 0 24 24" fill="none" xmlns="http://www.w3.org/2000/svg">
<path d="M9.21182 14.2284L9.08982 13.4884L9.08981 13.4884L9.21182 14.2284ZM14.7882 14.2284L14.9102 13.4884L14.9102 13.4884L14.7882 14.2284ZM14.996 14.2627L14.874 15.0027L14.874 15.0027L14.996 14.2627ZM9.00404 14.2627L9.12604 15.0027L9.12605 15.0027L9.00404 14.2627ZM9.12605 15.0027L9.33383 14.9684L9.08981 13.4884L8.88203 13.5226L9.12605 15.0027ZM14.6662 14.9684L14.874 15.0027L15.118 13.5226L14.9102 13.4884L14.6662 14.9684ZM17.1719 20.25H6.82813V21.75H17.1719V20.25ZM9.33382 14.9684C11.1001 14.6772 12.8999 14.6772 14.6662 14.9684L14.9102 13.4884C12.9823 13.1705 11.0177 13.1705 9.08982 13.4884L9.33382 14.9684ZM4.25 19.1115C4.25 20.5455 5.38147 21.75 6.82813 21.75V20.25C6.25549 20.25 5.75 19.7634 5.75 19.1115H4.25ZM18.25 19.1115C18.25 19.7634 17.7445 20.25 17.1719 20.25V21.75C18.6185 21.75 19.75 20.5455 19.75 19.1115H18.25ZM19.75 19.1115C19.75 16.349 17.8042 13.9655 15.118 13.5226L14.874 15.0027C16.8012 15.3204 18.25 17.0477 18.25 19.1115H19.75ZM5.75 19.1115C5.75 17.0477 7.19882 15.3204 9.12604 15.0027L8.88204 13.5226C6.19583 13.9655 4.25 16.349 4.25 19.1115H5.75Z" fill="black"/>
<path d="M15.3346 6.9375C15.3346 8.67243 13.8682 10.125 12.0013 10.125V11.625C14.6447 11.625 16.8346 9.55181 16.8346 6.9375H15.3346ZM12.0013 10.125C10.1344 10.125 8.66797 8.67243 8.66797 6.9375H7.16797C7.16797 9.55181 9.35787 11.625 12.0013 11.625V10.125ZM8.66797 6.9375C8.66797 5.20257 10.1344 3.75 12.0013 3.75V2.25C9.35787 2.25 7.16797 4.32319 7.16797 6.9375H8.66797ZM12.0013 3.75C13.8682 3.75 15.3346 5.20257 15.3346 6.9375H16.8346C16.8346 4.32319 14.6447 2.25 12.0013 2.25V3.75Z" fill="black"/>
</svg>
