<svg width="126" height="119" viewBox="0 0 126 119" fill="none" xmlns="http://www.w3.org/2000/svg">
<path d="M107.127 11.184C116.738 19.2061 120.24 32.3902 122.765 44.5977C125.371 56.8052 127 67.9663 124.556 79.0577C122.032 90.1491 115.435 101.171 105.01 108.495C94.5032 115.889 80.2504 119.656 66.9749 118.47C53.7808 117.285 41.4827 111.146 29.3474 104.24C17.2936 97.3341 5.3212 89.591 1.65619 79.6855C-1.92738 69.78 2.79641 57.5725 7.6831 45.7138C12.5698 33.8551 17.7008 22.2754 27.3927 14.2533C37.1661 6.30099 51.5818 1.83653 66.6491 1.0692C81.7164 0.301872 97.5167 3.16192 107.127 11.184Z" fill="#FDF4B1"/>
</svg>
