<svg width="24" height="24" viewBox="0 0 24 24" fill="none" xmlns="http://www.w3.org/2000/svg">
<path d="M2 9.99784V13.9978C2 15.9978 3 16.9978 5 16.9978H6.43C6.8 16.9978 7.17 17.1078 7.49 17.2978L10.41 19.1278C12.93 20.7078 15 19.5578 15 16.5878V7.40784C15 4.42784 12.93 3.28784 10.41 4.86784L7.49 6.69784C7.17 6.88784 6.8 6.99784 6.43 6.99784H5C3 6.99784 2 7.99784 2 9.99784Z" stroke="#292D32" stroke-width="2"/>
<path d="M18 8C19.78 10.37 19.78 13.63 18 16" stroke="#292D32" stroke-width="1.5" stroke-linecap="round" stroke-linejoin="round"/>
<path d="M19.8301 5.5C22.7201 9.35 22.7201 14.65 19.8301 18.5" stroke="#292D32" stroke-width="1.5" stroke-linecap="round" stroke-linejoin="round"/>
</svg>
